<svg xmlns="http://www.w3.org/2000/svg" width="11.398" height="11.409" viewBox="0 0 11.398 11.409">
    <path data-name="Path 1519" d="M11.4 5.328a5.7 5.7 0 1 0-5.691 6.056h3.313A2.377 2.377 0 0 0 11.4 9.01zm-.95 3.682a1.425 1.425 0 0 1-1.425 1.425H5.706a4.768 4.768 0 0 1-3.55-1.588A4.709 4.709 0 0 1 .98 5.137 4.769 4.769 0 0 1 5.091.976a5.017 5.017 0 0 1 .617-.039 4.711 4.711 0 0 1 3.029 1.092 4.768 4.768 0 0 1 1.71 3.344z" transform="translate(.001 .024)" style="fill:#0058ff"/>
    <path data-name="Path 1520" d="M7.475 7.95h1.9a.475.475 0 1 0 0-.95h-1.9a.475.475 0 1 0 0 .95z" transform="translate(-3.675 -3.664)" style="fill:#0058ff"/>
    <path data-name="Path 1521" d="M11.274 11h-3.8a.475.475 0 1 0 0 .95h3.8a.475.475 0 1 0 0-.95z" transform="translate(-3.675 -5.765)" style="fill:#0058ff"/>
    <path data-name="Path 1522" d="M11.274 15h-3.8a.475.475 0 0 0 0 .95h3.8a.475.475 0 1 0 0-.95z" transform="translate(-3.675 -7.865)" style="fill:#0058ff"/>
</svg>
