<svg xmlns="http://www.w3.org/2000/svg" width="24" height="18" viewBox="0 0 24 18">
    <g transform="translate(0 -3)">
        <circle data-name="Ellipse 13" cx="1.5" cy="1.5" r="1.5" transform="translate(4 14)" style="fill:#7e84a3"/>
        <path data-name="Path 523" d="M19 3H5a5.006 5.006 0 0 0-5 5v8a5.006 5.006 0 0 0 5 5h14a5.006 5.006 0 0 0 5-5V8a5.006 5.006 0 0 0-5-5zM5 5h14a3 3 0 0 1 3 3H2a3 3 0 0 1 3-3zm14 14H5a3 3 0 0 1-3-3v-6h20v6a3 3 0 0 1-3 3z" style="fill:#7e84a3"/>
    </g>
</svg>
