<svg xmlns="http://www.w3.org/2000/svg" width="15.152" height="20.864" viewBox="0 0 15.152 20.864">
    <path data-name="Path 13043" d="M21.4 7.234zm-7.118-5L8.929 4.449l3.078 3.078a3.219 3.219 0 0 1 4.568 4.537l4.53-4.53.3-.3a7.566 7.566 0 0 0-7.119-5.004z" transform="translate(-6.71 -2.23)" style="fill:#4285f4"/>
    <path data-name="Path 13044" d="M13.576 13.731A3.22 3.22 0 0 1 11.3 8.237L8.219 5.159A7.552 7.552 0 0 0 6 10.516c0 3.338 1.716 5.43 3.735 7.576.135.138.248.292.376.435l5.728-5.727a3.208 3.208 0 0 1-2.263.931z" transform="translate(-6 -2.94)" style="fill:#ffba00"/>
    <path data-name="Path 13045" d="M13.576 2.23A7.576 7.576 0 0 0 6 9.806a8.4 8.4 0 0 0 .413 2.617l9.736-9.735a7.543 7.543 0 0 0-2.573-.458z" transform="translate(-6 -2.23)" style="fill:#0066da"/>
    <path data-name="Path 13046" d="M15.574 24.2a16.539 16.539 0 0 1 3.055-5.225c2.17-2.2 3.839-4.233 3.839-7.571a7.545 7.545 0 0 0-.458-2.573L11.426 19.418a13.67 13.67 0 0 1 2.721 4.755.756.756 0 0 0 1.427.03z" transform="translate(-7.315 -3.831)" style="fill:#00ac47"/>
    <path data-name="Path 13047" d="M9.748 18.651c.135.138.248.292.376.435-.124-.143-.241-.297-.376-.435zM6.927 7.464a7.527 7.527 0 0 0-.574 1.358 7.533 7.533 0 0 1 .574-1.358zm-.573 1.358a7.54 7.54 0 0 0-.3 1.478 7.541 7.541 0 0 1 .3-1.478z" transform="translate(-6.013 -3.499)" style="opacity:.5;fill:#0066da"/>
    <path data-name="Path 13048" d="M14.788 28.03a.679.679 0 0 0 .05.049.65.65 0 0 1-.05-.049zm.448.261h.03zM13.6 25.4c-.028-.051-.051-.1-.08-.155.024.055.048.104.08.155zm1.057 2.389q-.233-.685-.523-1.331c.187.432.366.874.519 1.331zm.386.437c-.017-.008-.035-.016-.052-.026.009.01.031.017.048.025zm3.17-4.472c-.189.263-.354.54-.525.814.167-.276.334-.552.522-.815z" transform="translate(-7.822 -7.447)" style="fill:#fff"/>
    <path data-name="Path 13049" d="M23.322 19.553z" transform="translate(-10.199 -6.429)" style="fill:#fff"/>
    <path data-name="Path 13050" d="M17.047 27.946q.266-.672.573-1.32c-.206.431-.396.874-.573 1.32zm1.237-2.588z" transform="translate(-8.678 -7.836)" style="fill:#fff"/>
    <path data-name="Path 13051" d="M8.219 5.159A7.552 7.552 0 0 0 6 10.516a8.4 8.4 0 0 0 .413 2.617l4.89-4.89z" transform="translate(-6 -2.94)" style="fill:#ea4435"/>
</svg>
