<svg xmlns="http://www.w3.org/2000/svg" width="16" height="24" viewBox="0 0 16 24">
    <path data-name="mobile-notch (1)" d="M15.045 0h-6.09A5.006 5.006 0 0 0 4 5v14a5.006 5.006 0 0 0 5 5h6a5.006 5.006 0 0 0 5-5V5a5.007 5.007 0 0 0-4.955-5zM18 19a3 3 0 0 1-3 3H9a3 3 0 0 1-3-3V5a3.006 3.006 0 0 1 2.411-2.942l.694 1.389A1 1 0 0 0 10 4h4a1 1 0 0 0 .9-.553l.694-1.389A3 3 0 0 1 18 5v14zm-5 1h-2a1 1 0 0 1-1-1 1 1 0 0 1 1-1h2a1 1 0 0 1 1 1 1 1 0 0 1-1 1z" transform="translate(-4 .001)" style="fill:#7e84a3"/>
</svg>
