<svg xmlns="http://www.w3.org/2000/svg" width="15" height="15" viewBox="0 0 15 15">
    <path d="M15 1.875V6.25a.625.625 0 1 1-1.25 0V2.134L6.379 9.5a.625.625 0 0 1-.879-.879l7.366-7.371H8.75a.625.625 0 1 1 0-1.25h4.375A1.877 1.877 0 0 1 15 1.875zm-.625 6.875a.625.625 0 0 0-.625.625v2.5a1.877 1.877 0 0 1-1.875 1.875h-8.75a1.877 1.877 0 0 1-1.875-1.875v-8.75A1.877 1.877 0 0 1 3.125 1.25h2.5a.625.625 0 0 0 0-1.25h-2.5A3.129 3.129 0 0 0 0 3.125v8.75A3.129 3.129 0 0 0 3.125 15h8.75A3.129 3.129 0 0 0 15 11.875v-2.5a.625.625 0 0 0-.625-.625z" style="fill:#f96900"/>
</svg>
