<svg xmlns="http://www.w3.org/2000/svg" width="10.144" height="10.145" viewBox="0 0 10.144 10.145">
    <path d="m.769.771.444-.385a1.308 1.308 0 0 1 1.851 0c.013.013.794 1.031.794 1.031a1.312 1.312 0 0 1 0 1.809l-.49.617A5.407 5.407 0 0 0 6.3 6.78l.617-.494a1.3 1.3 0 0 1 1.809 0s1.018.782 1.031.794a1.3 1.3 0 0 1 .021 1.83l-.426.49a2.589 2.589 0 0 1-1.851.752C4.273 10.147 0 5.867 0 2.643A2.6 2.6 0 0 1 .769.775zM7.5 9.3a1.72 1.72 0 0 0 1.23-.486l.423-.486a.465.465 0 0 0 .017-.638s-1.01-.779-1.022-.79a.478.478 0 0 0-.655 0c-.013.013-.862.693-.862.693a.42.42 0 0 1-.414.063 6.333 6.333 0 0 1-3.728-3.725.427.427 0 0 1 .063-.423s.68-.854.689-.862a.462.462 0 0 0 0-.655c-.013-.013-.79-1.023-.79-1.023A.472.472 0 0 0 1.792 1l-.444.385a1.753 1.753 0 0 0-.507 1.253C.841 5.579 4.97 9.3 7.5 9.3z" transform="translate(.004 -.003)" style="fill:#f96900"/>
</svg>
