<svg xmlns="http://www.w3.org/2000/svg" width="24" height="24" viewBox="0 0 24 24">
    <path data-name="Path 577" d="M12 0a12 12 0 1 0 12 12A12 12 0 0 0 12 0zm0 21a9 9 0 1 1 9-9 9 9 0 0 1-9 9z" style="fill:#7e84a3"/>
    <path data-name="Path 578" d="M11.545 9.545h-.3a1.577 1.577 0 0 0-1.6 1.393A1.5 1.5 0 0 0 11 12.532v4.65a1.5 1.5 0 0 0 3 0V12a2.455 2.455 0 0 0-2.455-2.455z" style="fill:#7e84a3"/>
    <path data-name="Path 579" d="M11.83 8.466a1.715 1.715 0 1 0-1.214-.5 1.716 1.716 0 0 0 1.214.5z" style="fill:#7e84a3"/>
</svg>
