<svg xmlns="http://www.w3.org/2000/svg" width="24" height="24.004" viewBox="0 0 24 24.004">
    <path d="M19 4h-1.1A5.009 5.009 0 0 0 13 0H5a5.006 5.006 0 0 0-5 5v12.854a2.148 2.148 0 0 0 3.339 1.789l2.95-1.967A5.009 5.009 0 0 0 11 21h5.7l3.964 2.644A2.15 2.15 0 0 0 24 21.854V9a5.006 5.006 0 0 0-5-5zM2.23 17.979a.14.14 0 0 1-.152.007.138.138 0 0 1-.078-.131V5a3 3 0 0 1 3-3h8a3 3 0 0 1 3 3v7a3 3 0 0 1-3 3H7a1.071 1.071 0 0 0-.565.175l-4.2 2.8zM22 21.855a.139.139 0 0 1-.078.131.133.133 0 0 1-.152-.007l-4.215-2.811A1 1 0 0 0 17 19h-6a3 3 0 0 1-2.828-2H13a5.006 5.006 0 0 0 5-5V6h1a3 3 0 0 1 3 3v12.854zM6 7a3 3 0 1 1 4.446 2.629C10 9.875 10 9.947 10 10a1 1 0 0 1-2 0 2.417 2.417 0 0 1 1.48-2.123A1 1 0 1 0 8 7a1 1 0 0 1-2 0zm4 6a1 1 0 1 1-1-1 1 1 0 0 1 1 1z" style="fill:#7e84a3"/>
</svg>
