<svg xmlns="http://www.w3.org/2000/svg" width="20" height="20" viewBox="0 0 20 20">
    <path d="M14.167 10a.417.417 0 0 1-.417.417h-3.333v3.333a.417.417 0 0 1-.833 0v-3.333H6.25a.417.417 0 1 1 0-.833h3.333V6.25a.417.417 0 1 1 .833 0v3.333h3.334a.417.417 0 0 1 .417.417zM20 3.75v12.5A3.755 3.755 0 0 1 16.25 20H3.75A3.755 3.755 0 0 1 0 16.25V3.75A3.755 3.755 0 0 1 3.75 0h12.5A3.755 3.755 0 0 1 20 3.75zm-.833 0A2.92 2.92 0 0 0 16.25.833H3.75A2.92 2.92 0 0 0 .833 3.75v12.5a2.92 2.92 0 0 0 2.917 2.917h12.5a2.92 2.92 0 0 0 2.917-2.917z" style="fill:#7e84a3"/>
</svg>
