<svg xmlns="http://www.w3.org/2000/svg" width="24.002" height="24.001" viewBox="0 0 24.002 24.001">
    <path d="m23.763 6.6-1.577 1.282.652 1.987a.667.667 0 0 1-1 .769l-1.836-1.2L18.2 10.65a.666.666 0 0 1-1.007-.75l.627-2.011-1.585-1.29a.667.667 0 0 1 .432-1.175h2l.708-1.987a.667.667 0 0 1 1.25 0l.708 1.987h2a.667.667 0 0 1 .431 1.176zm-15.527-3 1.585 1.29-.627 2.01a.667.667 0 0 0 1.006.75l1.805-1.208 1.836 1.2a.667.667 0 0 0 1-.769l-.652-1.987L15.764 3.6a.667.667 0 0 0-.429-1.177h-2l-.709-1.99a.667.667 0 0 0-1.25 0l-.708 1.987h-2a.667.667 0 0 0-.433 1.18zm-2.394 7.037a.667.667 0 0 0 1-.769l-.655-1.987L7.764 6.6a.667.667 0 0 0-.429-1.177h-2l-.709-1.991a.667.667 0 0 0-1.25 0l-.708 1.987h-2a.667.667 0 0 0-.433 1.175l1.585 1.29-.627 2.011a.667.667 0 0 0 1.007.754l1.805-1.208 1.836 1.2zm14.1 6.951-.639 3.2A4 4 0 0 1 15.381 24H7a3 3 0 0 1-3-3v-4a3 3 0 0 1 3-3h1.456l2.193-4.149a1.492 1.492 0 0 1 .682-.719 1.663 1.663 0 0 1 .64-.132 1.473 1.473 0 0 1 1.429 1.136 1.431 1.431 0 0 1-.007.6L12.816 14H17a3 3 0 0 1 2.942 3.588zM7 22h1v-6H7a1 1 0 0 0-1 1v4a1 1 0 0 0 1 1zm10.772-5.634A.986.986 0 0 0 17 16h-7v6h5.38a2 2 0 0 0 1.961-1.608l.639-3.2a.985.985 0 0 0-.207-.83z" transform="translate(0 .001)" style="fill:#7e84a3"/>
</svg>
