<svg xmlns="http://www.w3.org/2000/svg" width="24" height="16" viewBox="0 0 24 16">
    <path d="M19 4H5a5 5 0 0 0-5 5v6a5 5 0 0 0 5 5h14a5.006 5.006 0 0 0 5-5V9a5.006 5.006 0 0 0-5-5zM8.122 16a.7.7 0 0 1-.682-.543L7.173 14.3H4.764l-.274 1.161a.7.7 0 0 1-1.362-.321l1.413-5.993A1.489 1.489 0 0 1 6.6 8.126 1.507 1.507 0 0 1 7.439 9.2L8.8 15.144a.7.7 0 0 1-.68.856zM22 15a3 3 0 0 1-3 3h-7V6h7a3 3 0 0 1 3 3zm-1.5-5.384v.021a.616.616 0 0 1-.616.616h-.316a6.976 6.976 0 0 1-1.607 3.866 4.593 4.593 0 0 0 1.984.639.615.615 0 0 1 .555.613v.021a.617.617 0 0 1-.68.613 5.687 5.687 0 0 1-2.808-1.022 5.692 5.692 0 0 1-2.832 1.022.618.618 0 0 1-.679-.614v-.021a.62.62 0 0 1 .568-.614 4.578 4.578 0 0 0 1.977-.635 6.277 6.277 0 0 1-.833-1.227.615.615 0 0 1 .549-.9h.01a.608.608 0 0 1 .541.322 5.016 5.016 0 0 0 .693 1 5.667 5.667 0 0 0 1.3-3.071h-4.188a.616.616 0 0 1-.616-.616v-.015A.616.616 0 0 1 14.118 9h2.257v-.386A.616.616 0 0 1 16.991 8h.021a.616.616 0 0 1 .616.616V9h2.257a.616.616 0 0 1 .616.616zM6.065 9.463l.787 3.437H5.095l.811-3.437a.081.081 0 0 1 .079-.063.08.08 0 0 1 .079.063z" transform="translate(0 -4)" style="fill:#7e84a3"/>
</svg>
