<svg xmlns="http://www.w3.org/2000/svg" width="15.429" height="18" viewBox="0 0 15.429 18">
    <path d="M2.643 19a.643.643 0 1 1 0-1.286h1.286v-1.285a5.786 5.786 0 0 1 3.289-5.221.9.9 0 0 0 .568-.758v-.9a.9.9 0 0 0-.57-.759 5.786 5.786 0 0 1-3.288-5.22V2.286H2.643a.643.643 0 1 1 0-1.286h14.143a.643.643 0 0 1 0 1.286H15.5v1.285a5.786 5.786 0 0 1-3.289 5.221.9.9 0 0 0-.568.758v.9a.9.9 0 0 0 .57.759 5.786 5.786 0 0 1 3.288 5.22v1.286h1.286a.643.643 0 1 1 0 1.286zM5.214 2.286v1.285A4.464 4.464 0 0 0 5.648 5.5h8.133a4.483 4.483 0 0 0 .433-1.929V2.286zm3.857 8.164a2.18 2.18 0 0 1-1.3 1.918 4.5 4.5 0 0 0-2.557 4.06 5.187 5.187 0 0 1 3.857-1.9zm1.286 0v4.076a5.187 5.187 0 0 1 3.857 1.9 4.5 4.5 0 0 0-2.557-4.06 2.178 2.178 0 0 1-1.3-1.917z" transform="translate(-2 -1)" style="fill:#ffc700"/>
</svg>
