<svg xmlns="http://www.w3.org/2000/svg" width="20" height="20" viewBox="0 0 20 20">
    <path data-name="Path 516" d="M10 18.75A8.75 8.75 0 1 1 18.75 10 8.75 8.75 0 0 1 10 18.75M10 20A10 10 0 1 0 0 10a10 10 0 0 0 10 10" style="fill:#7e84a3"/>
    <path data-name="Path 517" d="M4.646 4.646a.5.5 0 0 1 .708 0L8 7.293l2.646-2.647a.5.5 0 0 1 .708.708L8.707 8l2.647 2.646a.5.5 0 0 1-.708.708L8 8.707l-2.646 2.647a.5.5 0 1 1-.708-.708L7.293 8 4.646 5.354a.5.5 0 0 1 0-.708" transform="translate(2 2)" style="fill:#7e84a3"/>
</svg>
