<svg xmlns="http://www.w3.org/2000/svg" width="20.393" height="20.393" viewBox="0 0 20.393 20.393">
    <path d="M5.523.85C2.778.85 0 1.871 0 3.824v13.595c0 1.953 2.778 2.974 5.523 2.974s5.523-1.021 5.523-2.974V3.824C11.046 1.871 8.267.85 5.523.85zm3.824 13.17c0 .37-1.34 1.275-3.824 1.275S1.7 14.39 1.7 14.02v-1.2a9 9 0 0 0 3.824.772 9 9 0 0 0 3.824-.772zm0-3.4c0 .37-1.34 1.275-3.824 1.275S1.7 10.992 1.7 10.621v-1.2a9 9 0 0 0 3.824.772 9 9 0 0 0 3.824-.772zm0-3.4c0 .37-1.34 1.275-3.824 1.275S1.7 7.593 1.7 7.222v-1.2a9 9 0 0 0 3.823.778 9 9 0 0 0 3.824-.772zM5.523 2.549c2.484 0 3.824.9 3.824 1.275S8.007 5.1 5.523 5.1 1.7 4.194 1.7 3.824s1.339-1.275 3.823-1.275zm0 16.144c-2.484 0-3.824-.9-3.824-1.275v-1.2a9 9 0 0 0 3.824.772 9 9 0 0 0 3.824-.772v1.2c0 .371-1.34 1.275-3.824 1.275zm14.621-1.2-2.154 2.154a2.554 2.554 0 0 1-3.605 0l-2.24-2.24a.85.85 0 1 1 1.2-1.2l1.948 1.948V.85a.85.85 0 1 1 1.7 0v17.39l1.948-1.948a.85.85 0 0 1 1.2 1.2z" style="fill:#f0142f"/>
</svg>
