<svg xmlns="http://www.w3.org/2000/svg" width="18.76" height="18.758" viewBox="0 0 18.76 18.758">
    <path d="m18.464 5.344-1.057-2.209a2.358 2.358 0 0 0-1.374-1.213L11.111.28a5.506 5.506 0 0 0-3.461 0L2.727 1.921a2.357 2.357 0 0 0-1.375 1.215L.347 5.252A2.366 2.366 0 0 0 1.563 8.7v4.936a3.9 3.9 0 0 0 2.672 3.712l3.412 1.137a5.506 5.506 0 0 0 3.461 0l3.415-1.139a3.9 3.9 0 0 0 2.673-3.7V8.705a2.33 2.33 0 0 0 1.422-1.4 2.283 2.283 0 0 0-.155-1.954zm-10.32-3.58a3.931 3.931 0 0 1 2.472 0l3.321 1.107L9.385 4.4l-4.56-1.529 3.319-1.106zM1.722 5.993l1.037-2.175c.038.02 5.517 1.855 5.517 1.855L7.009 8.22a.787.787 0 0 1-.917.339L2.12 7.235a.8.8 0 0 1-.5-.484.858.858 0 0 1 .1-.758zm3 9.868a2.341 2.341 0 0 1-1.6-2.226V9.22l2.472.824a2.345 2.345 0 0 0 2.785-1.073l.221-.436v8.584A3.774 3.774 0 0 1 8.139 17l-3.413-1.139zm9.3 0L10.609 17a3.925 3.925 0 0 1-.454.121v-8.6l.249.5a2.328 2.328 0 0 0 2 1.141 2.365 2.365 0 0 0 .75-.123l2.471-.823v4.418a2.343 2.343 0 0 1-1.6 2.223zm3.127-9.1a.775.775 0 0 1-.484.469l-4 1.334a.781.781 0 0 1-.888-.285l-1.294-2.6s5.479-1.84 5.517-1.86l1.089 2.268a.776.776 0 0 1 .063.672z" transform="translate(-.006 -.001)" style="fill:#f0142f"/>
</svg>
