<svg xmlns="http://www.w3.org/2000/svg" width="15" height="18" viewBox="0 0 15 18">
    <path data-name="Path 532" d="M16.25 3h-2.325a3.757 3.757 0 0 0-3.675-3h-1.5a3.757 3.757 0 0 0-3.675 3H2.75a.75.75 0 0 0 0 1.5h.75v9.75A3.755 3.755 0 0 0 7.25 18h4.5a3.755 3.755 0 0 0 3.75-3.75V4.5h.75a.75.75 0 0 0 0-1.5zm-7.5-1.5h1.5A2.254 2.254 0 0 1 12.372 3H6.628A2.254 2.254 0 0 1 8.75 1.5zM14 14.25a2.25 2.25 0 0 1-2.25 2.25h-4.5A2.25 2.25 0 0 1 5 14.25V4.5h9z" style="fill:#7e84a3" transform="translate(-2)"/>
    <path data-name="Path 533" d="M9.75 16a.75.75 0 0 0 .75-.75v-4.5a.75.75 0 0 0-1.5 0v4.5a.75.75 0 0 0 .75.75z" transform="translate(-3.75 -2.5)" style="fill:#7e84a3"/>
    <path data-name="Path 534" d="M13.75 16a.75.75 0 0 0 .75-.75v-4.5a.75.75 0 0 0-1.5 0v4.5a.75.75 0 0 0 .75.75z" transform="translate(-4.75 -2.5)" style="fill:#7e84a3"/>
</svg>
