<svg xmlns="http://www.w3.org/2000/svg" width="15.66" height="15.33" viewBox="0 0 15.66 15.33">
    <path data-name="Path 12897" d="M37.763 22.518a8.089 8.089 0 0 1-6.124 2.356 8 8 0 0 1-5.868-2.994 8.153 8.153 0 0 1-.266-9.793 8.793 8.793 0 0 1 2.5-2.3 1.682 1.682 0 0 1 2.537 1.484 6.1 6.1 0 0 0 7.238 6.471 1.682 1.682 0 0 1 1.72 2.389 9.335 9.335 0 0 1-1.736 2.387m-10.429-10.5a7.3 7.3 0 0 0-.739.86 6.788 6.788 0 0 0 .217 8.153 6.681 6.681 0 0 0 4.9 2.5 7.049 7.049 0 0 0 6.575-3.978.335.335 0 0 0-.168-.445.322.322 0 0 0-.173-.028 7.448 7.448 0 0 1-8.751-7.849.31.31 0 0 0-.161-.283.329.329 0 0 0-.342 0 7.2 7.2 0 0 0-1.355 1.073z" transform="translate(-24 -9.554)" style="fill:#667193"/>
</svg>
