<svg xmlns="http://www.w3.org/2000/svg" width="20" height="22" viewBox="0 0 20 22">
    <path data-name="paper-clip-svgrepo-com (1)" d="M15.76 1a5.079 5.079 0 0 1 3.64 1.514 5.184 5.184 0 0 1-.039 7.318l-8.059 8.144-.005.005a3.18 3.18 0 0 1-2.147 1.007 3.1 3.1 0 0 1-2.25-1.026 2.869 2.869 0 0 1-.849-2.462 3.428 3.428 0 0 1 .9-1.864l.005-.006L13.1 7.408a1 1 0 1 1 1.423 1.406l-6.136 6.21a1.433 1.433 0 0 0-.354.743.874.874 0 0 0 .282.783 1.148 1.148 0 0 0 .8.438 1.221 1.221 0 0 0 .781-.43l8.06-8.145a3.153 3.153 0 0 0 .691-1.023 3.2 3.2 0 0 0 .014-2.438 3.157 3.157 0 0 0-.679-1.032 3.1 3.1 0 0 0-1.015-.685 3.059 3.059 0 0 0-2.385.014 3.1 3.1 0 0 0-1.007.7l-.008.009-8.112 8.205-.005.005a4.838 4.838 0 0 0-1.065 1.57 4.9 4.9 0 0 0-.026 3.742 6.414 6.414 0 0 0 1.248 1.792 7.26 7.26 0 0 0 1.876 1.368 4.705 4.705 0 0 0 3.673-.027 4.765 4.765 0 0 0 1.544-1.075v-.005l7.58-7.67a1 1 0 1 1 1.423 1.406l-7.57 7.66a6.716 6.716 0 0 1-7.425 1.559 9.119 9.119 0 0 1-2.533-1.809A8.352 8.352 0 0 1 2.5 18.231a6.881 6.881 0 0 1 1.538-7.484l8.1-8.194A5.079 5.079 0 0 1 15.76 1z" transform="translate(-2 -1)" style="fill:#7e84a3;fill-rule:evenodd"/>
</svg>
