<svg xmlns="http://www.w3.org/2000/svg" width="18" height="18" viewBox="0 0 18 18">
    <path d="M18 7.5v6.75A3.751 3.751 0 0 1 14.25 18H3.75A3.751 3.751 0 0 1 0 14.25V6a3.751 3.751 0 0 1 3.75-3.75h6a.75.75 0 0 1 0 1.5h-6a2.262 2.262 0 0 0-1.987 1.192L7.41 10.59a2.25 2.25 0 0 0 3.18 0l2.865-2.865a.748.748 0 1 1 1.057 1.057l-2.865 2.865a3.766 3.766 0 0 1-5.31 0L1.5 6.8v7.45a2.257 2.257 0 0 0 2.25 2.25h10.5a2.257 2.257 0 0 0 2.25-2.25V7.5a.75.75 0 1 1 1.5 0zM12 3a3 3 0 1 1 3 3 3 3 0 0 1-3-3zm1.5 0A1.5 1.5 0 1 0 15 1.5 1.5 1.5 0 0 0 13.5 3z" style="fill:#00274d"/>
</svg>
