<svg xmlns="http://www.w3.org/2000/svg" width="24" height="24" viewBox="0 0 24 24">
    <path data-name="Path 12896" d="M23 11h-3.062a7.947 7.947 0 0 0-.575-2.129l2.655-1.546A1 1 0 0 0 21.012 5.6l-2.658 1.545a8.108 8.108 0 0 0-1.507-1.5L18.388 3a1 1 0 1 0-1.729-1.006L15.12 4.633A7.99 7.99 0 0 0 13 4.062V1a1 1 0 0 0-2 0v3.062a7.944 7.944 0 0 0-2.108.566L7.355 1.986a1 1 0 1 0-1.75.968l.022.038 1.536 2.641a8.046 8.046 0 0 0-1.512 1.506L3 5.6a1 1 0 0 0-1 1.725l2.64 1.54A7.947 7.947 0 0 0 4.062 11H1a1 1 0 0 0 0 2h3.062a7.939 7.939 0 0 0 .576 2.129L2 16.662a1 1 0 0 0 1.01 1.729l2.637-1.535a8.07 8.07 0 0 0 1.5 1.5L5.6 21a1 1 0 0 0 1.73 1.007l1.538-2.646a7.925 7.925 0 0 0 2.132.577V23a1 1 0 0 0 2 0v-3.062a7.973 7.973 0 0 0 2.143-.582l1.543 2.651A1 1 0 0 0 18.414 21l-1.546-2.657a8.076 8.076 0 0 0 1.49-1.494L21 18.39a1 1 0 1 0 1.006-1.729l-2.646-1.54A7.935 7.935 0 0 0 19.938 13H23a1 1 0 0 0 0-2m-11 7c-7.644-.094-8.208-11.68 0-12 7.929.252 7.928 11.749 0 12" style="fill:#667193"/>
</svg>
