<svg xmlns="http://www.w3.org/2000/svg" width="20" height="24" viewBox="0 0 20 24">
    <path data-name="Path 12752" d="M19 8.424V7A7 7 0 1 0 5 7v1.424A5 5 0 0 0 2 13v6a5.006 5.006 0 0 0 5 5h10a5.006 5.006 0 0 0 5-5v-6a5 5 0 0 0-3-4.576zM7 7a5 5 0 0 1 10 0v1H7zm13 12a3 3 0 0 1-3 3H7a3 3 0 0 1-3-3v-6a3 3 0 0 1 3-3h10a3 3 0 0 1 3 3z" style="fill:#7e84a3" transform="translate(-2)"/>
    <path data-name="Path 12753" d="M12 14a1 1 0 0 0-1 1v2a1 1 0 0 0 2 0v-2a1 1 0 0 0-1-1z" style="fill:#7e84a3" transform="translate(-2)"/>
</svg>
