<svg xmlns="http://www.w3.org/2000/svg" width="18" height="17.747" viewBox="0 0 18 17.747">
    <path data-name="comment-alt-dots (1)" d="M10.124 7.875A1.125 1.125 0 1 1 9 6.75a1.125 1.125 0 0 1 1.124 1.125zm2.625-1.125a1.125 1.125 0 1 0 1.125 1.125 1.125 1.125 0 0 0-1.125-1.125zm-7.5 0a1.125 1.125 0 1 0 1.125 1.125A1.125 1.125 0 0 0 5.25 6.75zM18 3v9a3 3 0 0 1-3 3h-2.14l-2.886 2.384a1.451 1.451 0 0 1-.969.363 1.508 1.508 0 0 1-1-.38L5.191 15H3a3 3 0 0 1-3-3V3a3 3 0 0 1 3-3h12a3 3 0 0 1 3 3zm-1.5 0A1.5 1.5 0 0 0 15 1.5H3A1.5 1.5 0 0 0 1.5 3v9A1.5 1.5 0 0 0 3 13.5h2.466a.753.753 0 0 1 .484.176l3.036 2.557 3.128-2.562a.749.749 0 0 1 .478-.172H15A1.5 1.5 0 0 0 16.5 12V3z" transform="translate(.001)" style="fill:#00274d"/>
</svg>
