<svg xmlns="http://www.w3.org/2000/svg" width="24" height="24" viewBox="0 0 24 24">
    <path d="M24 12a1 1 0 0 1-1 1H1a1 1 0 0 1 0-2h22a1 1 0 0 1 1 1zM7 22H5a3 3 0 0 1-3-3v-2a1 1 0 0 0-2 0v2a5.006 5.006 0 0 0 5 5h2a1 1 0 0 0 0-2zm16-6a1 1 0 0 0-1 1v2a3 3 0 0 1-3 3h-2a1 1 0 0 0 0 2h2a5.006 5.006 0 0 0 5-5v-2a1 1 0 0 0-1-1zM19 0h-2a1 1 0 0 0 0 2h2a3 3 0 0 1 3 3v2a1 1 0 0 0 2 0V5a5.006 5.006 0 0 0-5-5zM1 8a1 1 0 0 0 1-1V5a3 3 0 0 1 3-3h2a1 1 0 0 0 0-2H5a5.006 5.006 0 0 0-5 5v2a1 1 0 0 0 1 1z" style="fill:#7e84a3"/>
</svg>
