<svg xmlns="http://www.w3.org/2000/svg" width="17.997" height="18" viewBox="0 0 17.997 18">
    <path d="M14.248 3h-.826a3.756 3.756 0 0 0-3.674-3h-6A3.754 3.754 0 0 0 0 3.749v9.639a1.611 1.611 0 0 0 2.5 1.342l2.212-1.475a3.756 3.756 0 0 0 3.533 2.493h4.272l2.973 1.983A1.612 1.612 0 0 0 18 16.388V6.749A3.754 3.754 0 0 0 14.248 3zM1.672 13.482a.1.1 0 0 1-.114.005.1.1 0 0 1-.059-.1V3.749A2.252 2.252 0 0 1 3.749 1.5h6A2.252 2.252 0 0 1 12 3.749V9a2.252 2.252 0 0 1-2.25 2.25h-4.5a.8.8 0 0 0-.424.131l-3.153 2.1zM16.5 16.389a.1.1 0 0 1-.058.1.1.1 0 0 1-.114-.005l-3.161-2.108a.752.752 0 0 0-.416-.126h-4.5a2.253 2.253 0 0 1-2.121-1.5h3.62A3.754 3.754 0 0 0 13.5 9V4.5h.75a2.252 2.252 0 0 1 2.25 2.25v9.639zm-12-11.14a2.25 2.25 0 1 1 3.333 1.972c-.333.184-.333.238-.333.279a.75.75 0 0 1-1.5 0 1.813 1.813 0 0 1 1.109-1.593A.75.75 0 1 0 6 5.25a.75.75 0 0 1-1.5 0zm3 4.5A.75.75 0 1 1 6.749 9a.75.75 0 0 1 .751.748z" style="fill:#00274d"/>
</svg>
