<svg xmlns="http://www.w3.org/2000/svg" width="20" height="24" viewBox="0 0 20 24">
    <path d="M18.573 2.126 12.314.051a1 1 0 0 0-.629 0L5.426 2.126A4.993 4.993 0 0 0 2 6.872v5.171c0 6.563 7 10.577 9.151 11.65A1.736 1.736 0 0 0 12 24a1.649 1.649 0 0 0 .791-.24C14.952 22.891 22 19.479 22 12.043V6.872a4.993 4.993 0 0 0-3.427-4.746zM20 12.043c0 6.182-6.088 9.111-7.953 9.861C10.158 20.96 4 17.46 4 12.043V6.872a3 3 0 0 1 2.056-2.848L12 2.053l5.944 1.971A3 3 0 0 1 20 6.872zM14.5 9.5a2.5 2.5 0 0 1-1.5 2.291V15a1 1 0 0 1-2 0v-3.209A2.5 2.5 0 1 1 14.5 9.5z" transform="translate(-1.999)" style="fill:#7e84a3"/>
</svg>
