<svg xmlns="http://www.w3.org/2000/svg" width="23.287" height="23.261" viewBox="0 0 23.287 23.261">
    <path data-name="Path 12895" d="m83.086 8.425-2.165 2.165a7.993 7.993 0 0 0-1.912-1.1l.784-2.97a1 1 0 0 0-1.931-.509l-.787 2.972a8.143 8.143 0 0 0-2.127.005l-.78-2.96a1 1 0 1 0-1.934.512l.778 2.954a7.971 7.971 0 0 0-1.9 1.1l-2.168-2.169a1 1 0 0 0-1.415 1.414L69.695 12a7.974 7.974 0 0 0-1.095 1.9l-2.955-.781a1 1 0 1 0-.553 1.922l.043.011 2.953.781a8.075 8.075 0 0 0 0 2.135l-2.963.786a1 1 0 0 0 .513 1.927l2.956-.778a7.919 7.919 0 0 0 1.1 1.918l-2.166 2.165a1 1 0 0 0 1.416 1.414l2.165-2.166a7.941 7.941 0 0 0 1.912 1.1l-.781 2.949a1 1 0 1 0 1.937.508l.779-2.95a8.012 8.012 0 0 0 2.121 0l.776 2.964a1 1 0 0 0 1.935-.511L79 24.33a7.936 7.936 0 0 0 1.916-1.1l2.17 2.17a1 1 0 0 0 1.414-1.419l-2.165-2.165a7.947 7.947 0 0 0 1.1-1.927l2.965.784a1 1 0 0 0 .51-1.934l-2.972-.786a8.1 8.1 0 0 0 0-2.11l2.958-.778a1 1 0 0 0-.511-1.934l-2.96.782A7.98 7.98 0 0 0 82.335 12L84.5 9.839a1 1 0 0 0-1.414-1.414m-2.829 12.728c-5.471 5.339-14.063-2.455-8.485-8.485 5.785-5.429 13.914 2.7 8.485 8.485m-.547-2.6c-2.713 5.158-10.1.95-6.94-3.978a4.4 4.4 0 0 1 1.239-1.142.543.543 0 0 1 .745.191.555.555 0 0 1 .076.286 3.7 3.7 0 0 0 3.47 3.913 3.748 3.748 0 0 0 .853-.047.544.544 0 0 1 .559.772" transform="translate(-64.372 -5.285)" style="fill:#667193"/>
</svg>
