<svg xmlns="http://www.w3.org/2000/svg" width="16.923" height="17" viewBox="0 0 16.923 17">
    <path d="M14.451 2.471A8.341 8.341 0 0 0 8.494 0a8.43 8.43 0 0 0-7.3 12.634L0 17l4.467-1.171a8.394 8.394 0 0 0 4.027 1.025A8.421 8.421 0 0 0 14.45 2.471zM8.494 15.429a7.012 7.012 0 0 1-3.566-.977l-.255-.152-2.65.695.708-2.585-.166-.267a7 7 0 1 1 5.929 3.287m3.841-5.242c-.209-.105-1.243-.614-1.438-.686s-.335-.105-.473.105-.545.686-.666.823-.246.157-.457.053A5.747 5.747 0 0 1 7.61 9.435a6.423 6.423 0 0 1-1.172-1.458c-.121-.21-.012-.323.093-.428s.209-.246.314-.368a1.343 1.343 0 0 0 .21-.351.392.392 0 0 0-.016-.369c-.053-.105-.473-1.143-.65-1.562s-.343-.356-.473-.361-.262-.007-.4-.007a.776.776 0 0 0-.562.262A2.359 2.359 0 0 0 4.22 6.55a4.078 4.078 0 0 0 .861 2.177 9.358 9.358 0 0 0 3.594 3.179 11.71 11.71 0 0 0 1.2.444 2.891 2.891 0 0 0 1.324.085 2.18 2.18 0 0 0 1.422-1 1.762 1.762 0 0 0 .121-1c-.052-.089-.193-.141-.4-.247" style="fill:#00274d"/>
</svg>
