<svg xmlns="http://www.w3.org/2000/svg" width="24.011" height="24.003" viewBox="0 0 24.011 24.003">
    <path d="M14 19a2 2 0 1 1-2-2 2.006 2.006 0 0 1 2 2zM1.33 7.07C.96 7.4.6 7.76.26 8.12A1 1 0 0 0 .99 9.8a.985.985 0 0 0 .73-.32c.3-.32.61-.63.93-.92a1 1 0 1 0-1.33-1.49zm5.05 4.84a8.951 8.951 0 0 0-1.11 1.02A1 1 0 0 0 6 14.61a.985.985 0 0 0 .73-.32 7.3 7.3 0 0 1 .87-.8 1 1 0 0 0-1.22-1.58zm7.21.26a7.263 7.263 0 0 1 3.66 2.11 1 1 0 0 0 1.46-1.36A9.26 9.26 0 0 0 11.49 10h-.07L7.24 5.83a14.027 14.027 0 0 1 15.03 3.65 1 1 0 0 0 1.46-1.36A16.077 16.077 0 0 0 12 3a15.783 15.783 0 0 0-6.3 1.29l-3.99-4A1 1 0 0 0 .29 1.71l22 22A.982.982 0 0 0 23 24a1.024 1.024 0 0 0 .71-.29 1 1 0 0 0 0-1.41L13.6 12.18z" transform="translate(.008 .003)" style="fill:#7e84a3"/>
</svg>
