<svg xmlns="http://www.w3.org/2000/svg" width="332" height="281.276" viewBox="0 0 332 281.276">
    <g data-name="Free shipping-amico">
        <ellipse data-name="freepik--floor--inject-18" cx="166" cy="97.204" rx="166" ry="97.204" style="fill:#fafafa" transform="translate(0 86.868)"/>
        <g transform="translate(26.587 104.568)">
            <path d="m225.526 228.785 81.049 46.8c1.711.993 1.711 2.594 0 3.58l-188.049 108.7a9.857 9.857 0 0 1-6.558.876c-35.692-9.775-63.58-26.43-81.46-46.74a2.861 2.861 0 0 1 .78-4.518L219.3 228.785a6.845 6.845 0 0 1 6.226 0z" transform="translate(-17.66 -228.037)" style="fill:#ebebeb"/>
            <ellipse data-name="freepik--shadow--inject-18" cx="24.048" cy="13.882" rx="24.048" ry="13.882" transform="translate(208.633 87.711)" style="fill:#ebebeb"/>
            <path data-name="freepik--shadow--inject-18" d="M426.007 273.225c8.9 5.134 8.9 13.458 0 18.592s-23.274 5.134-32.173 0-8.9-13.458 0-18.592 23.288-5.134 32.173 0z" transform="translate(-387.16 -241.078)" style="fill:#ebebeb"/>
        </g>
        <g data-name="freepik--tree--inject-18" transform="translate(.422 25.369)">
            <path data-name="Path 649" d="m402.76 209.234 1.793-.91 8.564 19.105V204.49h3.334v18.482l8.728-16.395 1.7 1.061-10.432 19.167v34.788a.822.822 0 0 1-.493.685 2.6 2.6 0 0 1-2.375 0 .828.828 0 0 1-.486-.685v-29.715z" transform="translate(-365.874 -141.41)" style="fill:#e0e0e0"/>
            <circle data-name="Ellipse 13" cx="25.759" cy="25.759" transform="rotate(-103.3 36.151 33.537)" style="fill:#f0f0f0" r="25.759"/>
            <path data-name="Path 650" d="M420.811 160.273c-3.32-10.467-6.845-14.56-4.614-15.833a25.759 25.759 0 1 1-7.188 38.813c7.634 2.232 16.108-9.412 11.802-22.98z" transform="translate(-397.911 -121.412)" style="fill:#e0e0e0"/>
            <path data-name="Path 651" d="M360.9 181.036a18.106 18.106 0 1 0 18.106-18.106 18.106 18.106 0 0 0-18.106 18.106z" transform="translate(-307.449 -128.299)" style="fill:#f0f0f0"/>
            <path data-name="Path 652" d="M382.6 162.93a18.051 18.051 0 0 1 10.583 3.423c.493 11.062-8.9 21.85-6.277 25.472s9.091 1.4 11.343-1.677a18.106 18.106 0 1 1-15.649-27.21z" transform="translate(-311.042 -128.299)" style="fill:#e0e0e0"/>
            <path data-name="Path 653" d="M371.94 145.554a33.221 33.221 0 1 0 33.218-33.214 33.222 33.222 0 0 0-33.218 33.214z" transform="translate(-356.275 -112.34)" style="fill:#f0f0f0"/>
            <path data-name="Path 654" d="M371.9 157.183a33.214 33.214 0 1 0 56.638-30.229c-2.307-2.478-2.451-2.581-.178-.185a33.766 33.766 0 0 1 .876 7.585 33.207 33.207 0 0 1-57.336 22.83z" transform="translate(-355.321 -116.344)" style="fill:#ebebeb"/>
        </g>
        <g data-name="freepik--truck--inject-18">
            <path data-name="Path 657" d="M65.7 290.6a15.156 15.156 0 0 0 1.184 6.257 7.756 7.756 0 0 0 3.046 3.553l.1.062 7.626 4.395 3.094-6.161.212-.411a25.115 25.115 0 0 0 4.621-4.7 15.057 15.057 0 0 0 .972-1.335 33.9 33.9 0 0 0 4.395-8.981 27.334 27.334 0 0 0 1.328-7.468l.055-.1.78-1.547 1.663-3.183.685-1.369-6.8-3.936-.459-.267-.192-.109a6.845 6.845 0 0 0-3.423-.89 11.247 11.247 0 0 0-5.552 1.684C71.667 270.376 65.7 281.335 65.7 290.6z" transform="translate(196.692 -134.94)" style="fill:#263238"/>
            <path data-name="Path 658" d="M85.608 281.774c0 7.989-4.436 17.237-10.371 22.35a19.564 19.564 0 0 1-2.916 2.088c-7.359 4.258-13.328.185-13.321-9.084 0-7 3.423-14.971 8.214-20.276l.041-.041a21.436 21.436 0 0 1 5.038-4.148c7.387-4.217 13.315-.151 13.315 9.111z" transform="translate(211.138 -137.022)" style="fill:#37474f"/>
            <path data-name="Path 659" d="M74.5 281.166c4.675-2.7 8.475.11 8.475 6.291s-3.8 13.376-8.475 16.08-8.481-.116-8.481-6.291 3.8-13.376 8.481-16.08z" transform="translate(208.965 -139.905)" style="fill:#455a64"/>
            <path data-name="Path 660" d="M77.352 281.779c0 7.989-4.436 17.237-10.371 22.35a37.725 37.725 0 0 0 8.447-16.347c1.129-5.339.685-13.006-3.881-14.943s-10.638 2.143-12.548 4a21.432 21.432 0 0 1 5.038-4.148c7.387-4.24 13.315-.174 13.315 9.088z" transform="translate(219.394 -137.026)" style="fill:#455a64"/>
            <path data-name="Path 661" d="M76.382 289.254c2.43-1.4 4.395.055 4.395 3.265s-1.965 6.941-4.395 8.345-4.4-.062-4.4-3.265 1.935-6.942 4.4-8.345z" transform="translate(207.085 -142.612)" style="fill:#e0e0e0"/>
            <path data-name="Path 662" d="M75.849 289.23a3.615 3.615 0 0 1 .965-.39c1.218.329 2.054 1.663 2.054 3.717a11.083 11.083 0 0 1-2.5 6.661 5 5 0 0 1-.52.356c-2.163 1.246-3.909-.048-3.909-2.9s1.747-6.191 3.91-7.444z" transform="translate(209.021 -142.65)" style="fill:#f5f5f5"/>
            <path data-name="Path 663" d="M159.919 259.26v3.231l-95.089 54.9v-3.231z" transform="translate(132.837 -133.319)" style="fill:#455a64"/>
            <path data-name="Path 664" d="m100.507 287.355 5.2-3.005V302c0 .952-.685 1.335-1.485.856l-4.112-2.356.39-.233z" transform="translate(162.902 -141.234)" style="fill:#ff7e00"/>
            <path data-name="Path 665" d="m100.507 287.355 5.2-3.005V302c0 .952-.685 1.335-1.485.856l-4.112-2.356.39-.233z" transform="translate(162.902 -141.234)" style="opacity:.7;fill:#fff"/>
            <path data-name="Path 666" d="M131.488 288.74v9.686L107.7 312.158v-9.686z" transform="translate(131.922 -142.619)" style="fill:#37474f"/>
            <path data-name="Path 667" d="m105.68 316.622 23.788-13.732 1.383.821-25.17 14.512z" transform="translate(133.942 -147.082)" style="fill:#263238"/>
            <path data-name="Path 668" d="M130.854 305.709V304.1l-25.164 14.505v1.629z" transform="translate(133.932 -147.464)" style="fill:#455a64"/>
            <path data-name="Path 669" d="M162.028 304.08v19.379l-19.578 11.3v-19.377z" transform="translate(77.594 -147.458)" style="fill:#37474f"/>
            <path data-name="Path 670" d="M190.628 320.59v19.379l-19.578 11.3V331.9z" transform="translate(29.416 -152.666)" style="fill:#37474f"/>
            <path data-name="Path 671" d="m205.243 356.479-5.593-3.231V337.1l2.793 1.615 2.8-1.609z" transform="translate(-4.776 -157.874)" style="fill:#263238"/>
            <path data-name="Path 672" d="M171.416 339.372V320l-1.4.808v19.372z" transform="translate(49.333 -152.48)" style="fill:#263238"/>
            <path data-name="Path 673" d="M185.723 336.2v-3.23l-1.4.808-.007 3.231z" transform="translate(25.237 -156.572)" style="fill:#e0e0e0"/>
            <path data-name="Path 674" d="M157.123 319.7v-3.23l-1.4.8-.007 3.238z" transform="translate(73.415 -151.366)" style="fill:#e0e0e0"/>
            <path data-name="Path 675" d="M139.8 302.87v12.924l1.362.815v1.622l-2.793 1.616V303.7z" transform="translate(101.252 -147.076)" style="opacity:.2"/>
            <path data-name="Path 676" d="M157.348 251.585 56.667 309.709l-.007-6.435 100.688-58.124z" transform="translate(141 -128.868)" style="fill:#ff7e00"/>
            <g data-name="Group 16361" style="opacity:.6">
                <path data-name="Path 677" d="M157.348 251.585 56.667 309.709l-.007-6.435 100.688-58.124z" transform="translate(141 -128.868)" style="fill:#fff"/>
            </g>
            <path data-name="Path 678" d="m206.533 335.741-2.793-1.616v-6.455l2.793 1.615z" transform="translate(-8.866 -154.9)" style="fill:#ff7e00"/>
            <g data-name="Group 16362" style="opacity:.5">
                <path data-name="Path 679" d="m206.533 335.741-2.793-1.616v-6.455l2.793 1.615z" transform="translate(-8.866 -154.9)" style="fill:#fff"/>
            </g>
            <g data-name="Group 16363" style="opacity:.1">
                <path data-name="Path 680" d="m197.667 180.841-2.793-1.616v-6.455l2.793 1.615z"/>
            </g>
            <path data-name="Path 681" d="m157.342 186.14 69.919 40.394-100.682 58.1-69.919-40.363z" transform="translate(71.088 -110.252)" style="fill:#ff7e00"/>
            <g data-name="Group 16364" style="opacity:.8">
                <path data-name="Path 682" d="m157.342 186.14 69.919 40.394-100.682 58.1-69.919-40.363z" transform="translate(71.088 -110.252)" style="fill:#fff"/>
            </g>
            <g>
                <g data-name="freepik--box--inject-18">
                    <path data-name="Path 683" d="m222.732 112.416-89.5 51.669-64.322-37.136 89.5-51.669z" transform="translate(67.231 -75.28)" style="fill:#455a64"/>
                    <path data-name="Path 684" d="M68.91 261.933V181.2l89.5-51.669v80.734z" transform="translate(131.557 -92.394)" style="fill:#37474f"/>
                    <path data-name="Path 685" d="m263.976 268.63-64.326-37.136V150.76l64.326 37.14z" transform="translate(-63.509 -99.091)" style="fill:#263238"/>
                </g>
                <path data-name="Path 686" d="M161.426 283.084a3.888 3.888 0 0 0 1.657-3.142v-4.792l-3.368 1.978-.219-.041v4.622a1.609 1.609 0 0 0 .685 1.458 1.1 1.1 0 0 0 .527.137 1.526 1.526 0 0 0 .719-.219zm-.376-5.175.246 1.684h1.246v.349a3.423 3.423 0 0 1-1.369 2.677.739.739 0 0 1-.726.075 1.088 1.088 0 0 1-.39-.986v-3.984zm.479-.465-.993-.178 2.006-1.184v2.971h-.78z" transform="translate(64.875 -138.332)" style="fill:#e0e0e0"/>
                <path data-name="Path 687" d="M161.987 290.158a.267.267 0 0 1-.267-.274v-3.607a.267.267 0 1 1 .534 0v3.607a.267.267 0 0 1-.267.274z" transform="translate(64.177 -141.758)" style="fill:#e0e0e0"/>
                <path data-name="Path 688" d="M159.685 292.3a.26.26 0 0 1-.233-.137.267.267 0 0 1 .1-.37l3.149-1.814a.253.253 0 0 1 .363.1.267.267 0 0 1-.1.37l-3.142 1.814a.306.306 0 0 1-.137.037z" transform="translate(64.912 -142.998)" style="fill:#e0e0e0"/>
                <path data-name="Path 689" d="M177.017 298.37a.555.555 0 0 1-.294-.075.685.685 0 0 1-.322-.65v-.745a.274.274 0 0 1 .541 0v.739c0 .11 0 .171.055.185a.233.233 0 0 0 .171-.048 1.6 1.6 0 0 0 .507-1.225v-4.792a.267.267 0 0 1 .267-.274.274.274 0 0 1 .274.274v4.792a2.053 2.053 0 0 1-.767 1.691.883.883 0 0 1-.431.123z" transform="translate(38.168 -143.486)" style="fill:#e0e0e0"/>
                <path data-name="Path 690" d="M178.939 288.039v-.157a2.286 2.286 0 0 0-3.724-2.149 7.632 7.632 0 0 0-3.457 5.99v.466zm-1.369-2.054a2.013 2.013 0 0 1 .835 1.759l-6.079 3.512a7.14 7.14 0 0 1 3.163-5.038 2.78 2.78 0 0 1 1.369-.417 1.471 1.471 0 0 1 .705.164z" transform="translate(40.585 -141.5)" style="fill:#e0e0e0"/>
                <path data-name="Path 691" d="M193.867 305.911a.267.267 0 0 1-.267-.274v-9.193a.267.267 0 0 1 .267-.274.274.274 0 0 1 .274.274v9.193a.274.274 0 0 1-.274.274z" transform="translate(10.467 -144.963)" style="fill:#e0e0e0"/>
                <path data-name="Path 692" d="M192.737 298.441a.281.281 0 0 1-.11 0 .267.267 0 0 1-.137-.356l.958-2.225 1.075 1.246a.27.27 0 1 1-.411.349l-.507-.589-.623 1.431a.267.267 0 0 1-.245.144z" transform="translate(10.797 -144.865)" style="fill:#e0e0e0"/>
                <path data-name="Path 693" d="M190.235 303.811a.274.274 0 0 1-.267-.274v-9.193a.274.274 0 1 1 .541 0v9.193a.274.274 0 0 1-.274.274z" transform="translate(16.584 -144.287)" style="fill:#e0e0e0"/>
                <path data-name="Path 694" d="M189.113 296.361a.311.311 0 0 1-.11 0 .267.267 0 0 1-.137-.356l.958-2.225 1.075 1.239a.274.274 0 0 1-.411.356l-.507-.589-.623 1.431a.267.267 0 0 1-.246.144z" transform="translate(16.919 -144.209)" style="fill:#e0e0e0"/>
                <path data-name="Path 695" d="M74.69 232.314v14.806c0 .568.4.8.9.513l23.11-13.348a1.958 1.958 0 0 0 .9-1.547v-14.813c0-.575-.4-.8-.9-.52L75.58 230.78a1.978 1.978 0 0 0-.89 1.534z" transform="translate(186.413 -120.077)" style="fill:#fafafa"/>
                <path data-name="Path 696" d="m77.526 220.56-.746.431v13.458l.746-.431z" transform="translate(207.05 -121.111)" style="fill:#455a64"/>
                <path data-name="Path 697" d="m82.507 223.12-1.287.76v13.458l1.287-.753z" transform="translate(199.03 -121.918)" style="fill:#455a64"/>
                <path data-name="Path 698" d="m86.406 225.68-.746.431v13.465l.746-.431z" transform="translate(192.091 -122.726)" style="fill:#455a64"/>
                <path data-name="Path 699" d="m90.5 227.58-1.492.89v13.458l1.492-.883z" transform="translate(185.702 -123.325)" style="fill:#455a64"/>
                <path data-name="Path 700" d="m95.286 230.81-.746.431V244.7l.746-.431z" transform="translate(177.132 -124.344)" style="fill:#455a64"/>
                <path data-name="Path 701" d="m99.332 232.61-1.6.952v13.458l1.6-.945z" transform="translate(170.903 -124.912)" style="fill:#455a64"/>
                <path data-name="Path 702" d="m104.166 235.93-.746.431.007 13.465.739-.438z" transform="translate(162.174 -125.959)" style="fill:#455a64"/>
                <path data-name="Path 703" d="m106.32 237.37-.37.219v13.458l.37-.212z" transform="translate(158.288 -126.414)" style="fill:#455a64"/>
                <path data-name="Path 704" d="m101.766 234.86-.377.212v13.465l.377-.219z" transform="translate(165.963 -125.622)" style="fill:#455a64"/>
                <path data-name="Path 705" d="m92.826 229.62-.376.219V243.3l.376-.212z" transform="translate(181.023 -123.969)" style="fill:#455a64"/>
                <path data-name="Path 706" d="m87.926 226.81-.376.219v13.458l.376-.212z" transform="translate(189.277 -123.082)" style="fill:#455a64"/>
                <path data-name="Path 707" d="m84.4 224.87-.37.219v13.458l.377-.219z" transform="translate(195.206 -122.47)" style="fill:#455a64"/>
                <path data-name="Path 708" d="m79.64 221.97-.37.219v13.458l.37-.212z" transform="translate(203.232 -121.555)" style="fill:#455a64"/>
                <path data-name="Path 709" d="m108.589 238.49-.739.431v13.465l.746-.431z" transform="translate(154.711 -126.767)" style="fill:#455a64"/>
                <g>
                    <path data-name="Path 710" d="M126.11 249.746v-80.734l11.19-6.462v80.734z" transform="translate(113.512 -102.811)" style="fill:#ff7e00"/>
                    <g data-name="Group 16365" style="opacity:.3">
                        <path data-name="Path 711" d="M239.622 146.935V66.201l11.19-6.462v80.734z"/>
                    </g>
                    <path data-name="Path 712" d="M249.665 260.356v-80.734l-11.185-6.462v80.734z" transform="translate(-75.779 -106.158)" style="fill:#ff7e00"/>
                    <g data-name="Group 16366" style="opacity:.45">
                        <path data-name="Path 713" d="M173.886 154.198V73.464l-11.185-6.462v80.734z"/>
                    </g>
                    <path data-name="Path 714" d="M201.621 145.436 137.3 108.3l-11.185 6.455 64.321 37.145z" transform="translate(49.187 -85.697)" style="fill:#ff7e00"/>
                    <g data-name="Group 16367" style="opacity:.15">
                        <path data-name="Path 715" d="m250.808 59.739-64.321-37.136-11.185 6.455 64.321 37.145z"/>
                    </g>
                    <g data-name="Group 16368" style="opacity:.15">
                        <path data-name="Path 716" d="m226.274 45.576-11.24 6.428-1.985-1.145 11.185-6.462z"/>
                    </g>
                    <path data-name="Path 717" d="m107.72 149.352 89.51-51.662 11.185 6.455-89.51 51.669z" transform="translate(54.981 -82.35)" style="fill:#ff7e00"/>
                    <g data-name="Group 16369" style="opacity:.15">
                        <path data-name="Path 718" d="m162.701 67.002 89.51-51.662 11.185 6.455-89.51 51.669z"/>
                    </g>
                    <g data-name="freepik--ribbon--inject-18">
                        <path data-name="Path 719" d="M222.878 139S207 152.869 181.06 149.864c0 0 10.583 7.53 24.061 5.921 0 0-1.7 7.461-12.192 11.5 0 0 29.784-.438 35-24.9z" transform="translate(-14.738 -95.382)" style="opacity:.2"/>
                        <path data-name="Path 720" d="M221.9 136.91s-15.881 13.184-41.818 10.179c0 0 11.007 7.208 24.486 5.579 0 0-1.93 4.915-13.28 10.9 0 0 28.347.253 35.671-23.274z" transform="translate(-13.094 -94.722)" style="fill:#ff7e00"/>
                        <path data-name="Path 721" d="M221.9 136.91s-15.881 13.184-41.818 10.179c0 0 11.007 7.208 24.486 5.579 0 0-1.93 4.915-13.28 10.9 0 0 28.347.253 35.671-23.274z" transform="translate(-13.094 -94.722)" style="opacity:.25;fill:#fff"/>
                        <path data-name="Path 722" d="M211.808 143.573c-5.586 1.485-11.124-.924-11.124-.924l1.041-.459.157-.075.924-.431.205-.1.842-.418.212-.1.767-.4.212-.116.685-.383a1.843 1.843 0 0 1 .2-.11l.643-.376.178-.1.589-.356.164-.1.527-.322.151-.1.459-.3.137-.089.4-.267.123-.082.329-.233.11-.075.267-.2.089-.068.205-.144.089-.075.116-.089.082-.068h.048l.041-.034 1.657 1.109 3.423 2.273c-7.324 23.534-35.664 23.274-35.671 23.274 14.582-.724 29.902-11.793 31.723-20.062z" transform="translate(-1.888 -94.738)" style="opacity:.1"/>
                        <path data-name="Path 723" d="M182.332 104.2s3.156-3.683 12.828-2.019c5.84 1.01 15.74 7.819 20.646 19.171.623 1.438 2.013 1.917 2.738 2.882a5.574 5.574 0 0 0 .561.609h3.06c0-10.583-5.935-21.269-11.555-27.45s-14.861-9.207-21.46-9.46a14.889 14.889 0 0 0-6.8 1.307c-1.784 5.025-2.523 9.988-.018 14.96z" transform="translate(-8.74 -79.267)" style="fill:#ff7e00"/>
                        <path data-name="Path 724" d="M182.332 104.2s3.156-3.683 12.828-2.019c5.84 1.01 15.74 7.819 20.646 19.171.623 1.438 2.013 1.917 2.738 2.882a5.574 5.574 0 0 0 .561.609h3.06c0-10.583-5.935-21.269-11.555-27.45s-14.861-9.207-21.46-9.46a14.889 14.889 0 0 0-6.8 1.307c-1.784 5.025-2.523 9.988-.018 14.96z" transform="translate(-8.74 -79.267)" style="opacity:.5;fill:#fff"/>
                        <path data-name="Path 725" d="M180.73 129.716s5.51-1.862 3.238-10.686a37.6 37.6 0 0 1 3.792 15.628h-3.06a5.566 5.566 0 0 1-.561-.609c-.746-.965-2.136-1.444-2.738-2.882a14.863 14.863 0 0 0-.671-1.451z" transform="translate(25.658 -89.082)" style="opacity:.3;fill:#ff7e00"/>
                        <path data-name="Path 726" d="M180.73 129.716s5.51-1.862 3.238-10.686a37.6 37.6 0 0 1 3.792 15.628h-3.06a5.566 5.566 0 0 1-.561-.609c-.746-.965-2.136-1.444-2.738-2.882a14.863 14.863 0 0 0-.671-1.451z" transform="translate(25.658 -89.082)" style="opacity:.1"/>
                        <path data-name="Path 727" d="M230.52 104.2s-.486-11.637 6.845-16.271a14.889 14.889 0 0 0-6.8 1.307c-1.811 5.029-2.551 9.992-.045 14.964z" transform="translate(-56.928 -79.267)" style="opacity:.3;fill:#ff7e00"/>
                        <path data-name="Path 728" d="M230.52 104.2s-.486-11.637 6.845-16.271a14.889 14.889 0 0 0-6.8 1.307c-1.811 5.029-2.551 9.992-.045 14.964z" transform="translate(-56.928 -79.267)" style="opacity:.1"/>
                        <path data-name="Path 729" d="M196.7 111.595a22.089 22.089 0 0 1-5.647-6.791c-2.512-4.977-1.766-9.939 0-14.964-5.675 2.512-9.063 9.885-10.357 15.826-.685 3.327-.767 6.229-.205 7.564 1.588 3.744 10.911 18.879 50.806 12.212l-.048-4.189c-9.949-.602-27.402-3.641-34.549-9.658z" transform="translate(-17.461 -79.873)" style="fill:#ff7e00"/>
                        <path data-name="Path 730" d="M196.7 111.595a22.089 22.089 0 0 1-5.647-6.791c-2.512-4.977-1.766-9.939 0-14.964-5.675 2.512-9.063 9.885-10.357 15.826-.685 3.327-.767 6.229-.205 7.564 1.588 3.744 10.911 18.879 50.806 12.212l-.048-4.189c-9.949-.602-27.402-3.641-34.549-9.658z" transform="translate(-17.461 -79.873)" style="opacity:.4;fill:#fff"/>
                        <path data-name="Path 731" d="M118.092 139s15.881 13.869 41.818 10.864c0 0-10.583 7.53-24.061 5.921 0 0 1.7 7.461 12.192 11.5 0 0-29.784-.438-35-24.9z" transform="translate(99.844 -95.382)" style="opacity:.2"/>
                        <path data-name="Path 732" d="M119.052 136.91s15.881 13.184 41.825 10.179c0 0-11.007 7.208-24.486 5.579 0 0 1.93 4.915 13.28 10.9 0 0-28.347.253-35.671-23.274z" transform="translate(98.22 -94.722)" style="fill:#ff7e00"/>
                        <path data-name="Path 733" d="M119.052 136.91s15.881 13.184 41.825 10.179c0 0-11.007 7.208-24.486 5.579 0 0 1.93 4.915 13.28 10.9 0 0-28.347.253-35.671-23.274z" transform="translate(98.22 -94.722)" style="opacity:.25;fill:#fff"/>
                        <path data-name="Path 734" d="M134.316 143.573c5.593 1.485 11.131-.924 11.131-.924l-1.041-.459-.157-.075-.924-.431-.205-.1-.842-.418-.212-.1-.774-.4-.205-.116-.685-.383-.2-.11-.643-.376-.178-.1-.589-.356-.164-.1-.527-.322-.151-.1-.459-.3-.137-.089-.4-.267-.123-.082-.335-.233-.1-.075-.267-.2-.089-.068-.205-.144-.089-.075-.116-.089-.082-.068h-.048l-.041-.034-1.657 1.109-3.423 2.273c7.325 23.534 35.664 23.274 35.671 23.274-14.586-.724-29.906-11.793-31.734-20.062z" transform="translate(81.834 -94.738)" style="opacity:.1"/>
                        <path data-name="Path 735" d="M161.14 104.2s-3.149-3.683-12.821-2.019c-5.839 1.006-15.744 7.811-20.652 19.167-.616 1.438-2.006 1.917-2.738 2.882a5.575 5.575 0 0 1-.561.609h-3.06c0-10.583 5.935-21.269 11.555-27.45s14.861-9.207 21.46-9.46a14.888 14.888 0 0 1 6.8 1.307c1.79 5.029 2.53 9.992.017 14.964z" transform="translate(91.338 -79.267)" style="fill:#ff7e00"/>
                        <path data-name="Path 736" d="M161.14 104.2s-3.149-3.683-12.821-2.019c-5.839 1.006-15.744 7.811-20.652 19.167-.616 1.438-2.006 1.917-2.738 2.882a5.575 5.575 0 0 1-.561.609h-3.06c0-10.583 5.935-21.269 11.555-27.45s14.861-9.207 21.46-9.46a14.888 14.888 0 0 1 6.8 1.307c1.79 5.029 2.53 9.992.017 14.964z" transform="translate(91.338 -79.267)" style="opacity:.5;fill:#fff"/>
                        <path data-name="Path 737" d="M178.62 129.716s-5.476-1.862-3.238-10.686a37.6 37.6 0 0 0-3.792 15.628h3.06a5.567 5.567 0 0 0 .561-.609c.746-.965 2.136-1.444 2.738-2.882.213-.52.445-.979.671-1.451z" transform="translate(41.055 -89.082)" style="opacity:.3;fill:#ff7e00"/>
                        <path data-name="Path 738" d="M178.62 129.716s-5.476-1.862-3.238-10.686a37.6 37.6 0 0 0-3.792 15.628h3.06a5.567 5.567 0 0 0 .561-.609c.746-.965 2.136-1.444 2.738-2.882.213-.52.445-.979.671-1.451z" transform="translate(41.055 -89.082)" style="opacity:.1"/>
                        <path data-name="Path 739" d="M128.156 104.2s.493-11.637-6.845-16.271a14.889 14.889 0 0 1 6.8 1.307c1.818 5.029 2.558 9.992.045 14.964z" transform="translate(124.322 -79.267)" style="opacity:.3;fill:#ff7e00"/>
                        <path data-name="Path 740" d="M128.156 104.2s.493-11.637-6.845-16.271a14.889 14.889 0 0 1 6.8 1.307c1.818 5.029 2.558 9.992.045 14.964z" transform="translate(124.322 -79.267)" style="opacity:.1"/>
                        <path data-name="Path 741" d="M142.272 111.595a22.09 22.09 0 0 0 5.647-6.791c2.512-4.977 1.766-9.939 0-14.964 5.682 2.512 9.07 9.885 10.357 15.826.685 3.327.773 6.229.212 7.564-1.588 3.744-10.912 18.879-50.806 12.212l.041-4.189c9.954-.602 27.403-3.641 34.549-9.658z" transform="translate(104.565 -79.873)" style="fill:#ff7e00"/>
                        <path data-name="Path 742" d="M142.272 111.595a22.09 22.09 0 0 0 5.647-6.791c2.512-4.977 1.766-9.939 0-14.964 5.682 2.512 9.07 9.885 10.357 15.826.685 3.327.773 6.229.212 7.564-1.588 3.744-10.912 18.879-50.806 12.212l.041-4.189c9.954-.602 27.403-3.641 34.549-9.658z" transform="translate(104.565 -79.873)" style="opacity:.4;fill:#fff"/>
                        <path data-name="Path 743" d="M173.215 136.681a2.293 2.293 0 0 1 1.369-1.862 10.645 10.645 0 0 1 4.107-.6 10.323 10.323 0 0 1 4.23.685 2.252 2.252 0 0 1 1.246 1.793c.144 1.26.233 3.382-.6 4.58a7.29 7.29 0 0 1-4.894 1.759 7.174 7.174 0 0 1-4.867-1.759c-.817-1.221-.735-3.337-.591-4.596z" transform="translate(34.364 -93.87)" style="fill:#ff7e00"/>
                        <path data-name="Path 744" d="M173.215 136.681a2.293 2.293 0 0 1 1.369-1.862 10.645 10.645 0 0 1 4.107-.6 10.323 10.323 0 0 1 4.23.685 2.252 2.252 0 0 1 1.246 1.793c.144 1.26.233 3.382-.6 4.58a7.29 7.29 0 0 1-4.894 1.759 7.174 7.174 0 0 1-4.867-1.759c-.817-1.221-.735-3.337-.591-4.596z" transform="translate(34.364 -93.87)" style="opacity:.5;fill:#fff"/>
                        <path data-name="Path 745" d="M173.124 140.073c0 .493.548 1.28 1.615 2.054a6.845 6.845 0 0 0 5.983.424 4.97 4.97 0 0 0 3.491-3.861 6.714 6.714 0 0 1-.65 4 7.29 7.29 0 0 1-4.894 1.759 7.174 7.174 0 0 1-4.867-1.759 5.093 5.093 0 0 1-.678-2.615z" transform="translate(34.374 -95.284)" style="opacity:.3;fill:#ff7e00"/>
                        <path data-name="Path 746" d="M173.124 140.073c0 .493.548 1.28 1.615 2.054a6.845 6.845 0 0 0 5.983.424 4.97 4.97 0 0 0 3.491-3.861 6.714 6.714 0 0 1-.65 4 7.29 7.29 0 0 1-4.894 1.759 7.174 7.174 0 0 1-4.867-1.759 5.093 5.093 0 0 1-.678-2.615z" transform="translate(34.374 -95.284)" style="opacity:.1"/>
                    </g>
                </g>
            </g>
            <g>
                <path data-name="Path 747" d="m401.8 248.886-5.148-2.991a1.191 1.191 0 0 0-1.2-.116c-.3.178-.91.548-1.212.685a1.191 1.191 0 0 0-.507 1.1v12.363a3.731 3.731 0 0 0 1.7 2.93l5.141 3.026a1.2 1.2 0 0 0 1.2.123c.308-.178.917-.554 1.225-.726a1.2 1.2 0 0 0 .5-1.1v-12.364a3.731 3.731 0 0 0-1.699-2.93z" transform="translate(-335.877 -129.032)" style="fill:#fafafa"/>
                <path data-name="Path 748" d="M395.435 253.883v12.363a1.191 1.191 0 0 1-.5 1.1c-.3.164-.76.459-1.191.685a1.225 1.225 0 0 0 .459-1.075v-12.347a3.422 3.422 0 0 0-.493-1.663l1.225-.726a3.423 3.423 0 0 1 .5 1.663z" transform="translate(-327.817 -131.099)" style="fill:#e0e0e0"/>
                <path data-name="Path 749" d="m397.234 263.225 5.141 2.991c.938.541 1.691.1 1.691-.972v-12.37a3.738 3.738 0 0 0-1.691-2.93l-5.148-2.991c-.938-.541-1.7-.1-1.7.979v12.363a3.731 3.731 0 0 0 1.707 2.93z" transform="translate(-337.687 -129.364)" style="fill:#f0f0f0"/>
                <path data-name="Path 750" d="M399.582 277.881a.438.438 0 0 0 .37-.219.425.425 0 0 0-.158-.582l-3.587-2.054a.424.424 0 0 1-.212-.37V261.1a.431.431 0 1 0-.856 0v13.54a1.294 1.294 0 0 0 .643 1.116l3.587 2.054a.4.4 0 0 0 .212.075z" transform="translate(-333.36 -133.746)" style="fill:#263238"/>
                <path data-name="Path 751" d="m251.852 380.11-14.546-6.722s1.136-13.691 10.74-10.412 3.806 17.134 3.806 17.134z" transform="translate(-78.897 -165.878)" style="fill:#ff7e00"/>
                <g data-name="Group 16370" style="opacity:.5">
                    <path data-name="Path 752" d="m172.955 214.232-14.546-6.722s1.136-13.691 10.74-10.412 3.806 17.134 3.806 17.134z"/>
                </g>
                <path data-name="Path 753" d="m273.656 380.477 3.1-6.216-7.448-4.313c-2.375-1.369-5.524-1.2-8.988.794-7.359 4.251-13.321 15.2-13.321 24.472 0 4.846 1.636 8.276 4.251 9.83l.109.062 7.633 4.408 3.306-6.558c6.292-4.777 11.118-14.21 11.358-22.479z" transform="translate(-108.703 -167.957)" style="fill:#263238"/>
                <path data-name="Path 754" d="M266.8 386.365c0 7.989-4.436 17.237-10.378 22.35a20.091 20.091 0 0 1-2.923 2.1c-7.359 4.244-13.328.178-13.321-9.091 0-7 3.423-14.971 8.214-20.276l.041-.041a21.261 21.261 0 0 1 5.038-4.148c7.368-4.222 13.329-.159 13.329 9.106z" transform="translate(-94.079 -170.018)" style="fill:#37474f"/>
                <path data-name="Path 755" d="M255.735 385.75c4.682-2.738 8.475.109 8.475 6.291s-3.792 13.376-8.475 16.08-8.475-.116-8.475-6.291 3.792-13.377 8.475-16.08z" transform="translate(-96.333 -172.893)" style="fill:#455a64"/>
                <path data-name="Path 756" d="M257.622 393.851c2.43-1.369 4.395.055 4.395 3.265s-1.965 6.941-4.395 8.345-4.4-.062-4.4-3.265 1.969-6.942 4.4-8.345z" transform="translate(-98.22 -175.614)" style="fill:#e0e0e0"/>
                <path data-name="Path 757" d="M257.061 393.82a3.71 3.71 0 0 1 .965-.39c1.218.329 2.054 1.663 2.054 3.717a11.125 11.125 0 0 1-2.464 6.633 5.962 5.962 0 0 1-.527.356c-2.163 1.246-3.909-.048-3.909-2.9s1.72-6.17 3.881-7.416z" transform="translate(-96.257 -175.645)" style="fill:#f5f5f5"/>
                <path data-name="Path 758" d="M258.539 386.369c0 7.989-4.436 17.237-10.378 22.35a37.726 37.726 0 0 0 8.447-16.347c1.129-5.339.685-13.006-3.881-14.943s-10.638 2.142-12.548 4a21.258 21.258 0 0 1 5.038-4.148c7.36-4.24 13.322-.174 13.322 9.088z" transform="translate(-85.817 -170.022)" style="fill:#455a64"/>
                <path data-name="Path 759" d="m212.835 366.2 13.177-7.612 1.732-1 3.32-1.93 1.574-.917a1.1 1.1 0 0 1-.068-.465 2.656 2.656 0 0 1-.062-.732c0-10.193 7.153-22.59 16.025-27.683a19.511 19.511 0 0 1 2.594-1.26c.39-.151.76-.281 1.129-.39 7.01-2.122 12.233 2.136 12.233 10.857v1.321l21.905-12.657V223.88l-27.224 15.744-23.767 17.5-10.775 52.4-8.358 12.281-.445.65-5.107 7.489-1.657 20.379-.411 4.456-.178 1.835-.411 4.408-.192 2.054a3.3 3.3 0 0 0 4.963 3.122z" transform="translate(-91.549 -122.158)" style="fill:#ff7e00"/>
                <g data-name="Group 16371" style="opacity:.15">
                    <path data-name="Path 760" d="m121.286 244.042 13.177-7.612 1.732-1 3.32-1.93 1.574-.917a1.1 1.1 0 0 1-.068-.465 2.656 2.656 0 0 1-.062-.732c0-10.193 7.153-22.59 16.025-27.683a19.511 19.511 0 0 1 2.594-1.26c.39-.151.76-.281 1.129-.39 7.01-2.122 12.233 2.136 12.233 10.857v1.321l21.905-12.657v-99.852l-27.224 15.744-23.767 17.5-10.775 52.4-8.358 12.281-.445.65-5.107 7.489-1.657 20.379-.411 4.456-.178 1.835-.411 4.408-.192 2.054a3.3 3.3 0 0 0 4.963 3.122z"/>
                </g>
                <path data-name="Path 761" d="M218.63 265.306v32.3c0 1.191.828 1.67 1.855 1.075l26.793-15.45a4.107 4.107 0 0 0 1.862-3.224v-34c0-1.184-.828-1.663-1.862-1.075l-16.107 9.3c-1.027.6-2.635 1.643-3.587 2.348l-7.222 5.305a4.751 4.751 0 0 0-1.732 3.416z" transform="translate(-61.666 -128.721)" style="fill:#455a64"/>
                <path data-name="Path 762" d="M280.538 315.543a6.845 6.845 0 0 0 3.1-5.367V281.61c0-1.978-.732-3.033-1.636-2.355l-1.636 1.225a7.489 7.489 0 0 0-2.464 3.936l-6.6 34.3c-.267 1.369.486 1.883 1.67 1.191z" transform="translate(-132.185 -139.562)" style="fill:#455a64"/>
                <g data-name="Group 16372" style="opacity:.15">
                    <path data-name="Path 763" d="m155.602 131.628 10.823-7.886a39.38 39.38 0 0 1 3.032-1.971l19.2-11.069a1.41 1.41 0 0 1 1.451-.11 1.438 1.438 0 0 1 .637 1.314v87.1a3.772 3.772 0 0 1-1.732 3l-12.6 7.27a1.7 1.7 0 0 1-.876.26 1.253 1.253 0 0 1-.548-.116 1.369 1.369 0 0 1-.568-.493 1.977 1.977 0 0 1-.3-.767c-.452-2.3-1.848-6.421-6.161-8.153a11.1 11.1 0 0 0-7.037-.205 18.782 18.782 0 0 0-3.519 1.321c-.493.24-.945.479-1.369.685a1.438 1.438 0 0 1-1.451.137 1.062 1.062 0 0 1-.349-.349 1.664 1.664 0 0 1-.24-.931v-65.9a4.285 4.285 0 0 1 1.607-3.137zm-.513 69.74a.766.766 0 0 0 .486-.1l.116-.055a20.146 20.146 0 0 1 5.873-2.3 11.486 11.486 0 0 1 6.654.424 11 11 0 0 1 6.4 7.858c.082.294.144.555.192.815a.972.972 0 0 0 .472.746.836.836 0 0 0 .767-.116l12.609-7.263a3.074 3.074 0 0 0 1.369-2.375v-87.109a.787.787 0 0 0-.274-.685.466.466 0 0 0-.233-.055 1.041 1.041 0 0 0-.507.164l-19.2 11.09c-.849.486-2.177 1.369-2.964 1.924l-10.829 7.891a3.587 3.587 0 0 0-1.3 2.553v65.914a.76.76 0 0 0 .233.684.328.328 0 0 0 .116.034z"/>
                </g>
                <path data-name="Path 764" d="M318.39 351.545s9.933 13.732 31.6 26.7c17.983 10.747 37.581 13.259 37.581 13.259l2.56-31.092-69.181-39.952z" transform="translate(-270.945 -152.626)" style="fill:#ff7e00"/>
                <g data-name="Group 16373" style="opacity:.3">
                    <path data-name="Path 765" d="M47.445 198.919s9.933 13.732 31.6 26.7c17.983 10.747 37.581 13.259 37.581 13.259l2.56-31.092-69.181-39.952z"/>
                </g>
                <path data-name="Path 766" d="M298.13 311.042s9.933 13.739 31.6 26.7C347.711 348.486 367.309 351 367.309 351l13.869-20.406-69.193-39.944z" transform="translate(-248.124 -143.222)" style="fill:#ff7e00"/>
                <path data-name="Path 767" d="M296.07 358.565c.123-.13.233-.11.363.109 0 0 9.933 13.732 31.605 26.7 18 10.72 37.588 13.253 37.588 13.253 8.406.767 18.7-8.112 18.7-8.112l-1.417-1.034s-9.762 7.393-14.724 7.393c-4.278 0-19.571-1.944-40.319-13.691s-30.12-25.951-30.12-25.951a2.177 2.177 0 0 0-1.676 1.333z" transform="translate(-249.864 -164.225)" style="fill:#37474f"/>
                <path data-name="Path 768" d="M297.115 359.25s9.939 13.732 31.6 26.7c17.985 10.745 37.585 13.257 37.585 13.257 8.406.767 18.7-8.1 18.7-8.1v11.856s-10.268 8.9-18.7 8.1c0 0-19.605-2.519-37.581-13.259-21.666-12.951-31.6-26.7-31.6-26.7-1.743-2.927-1.004-13.613-.004-11.854z" transform="translate(-250.539 -164.801)" style="fill:#455a64"/>
                <path data-name="Path 769" d="M330.615 387.823a5.079 5.079 0 0 0-6.25 4.675 6.886 6.886 0 0 0 5.072 7.325 5.025 5.025 0 0 0 6.243-4.675 7.03 7.03 0 0 0-5.065-7.325z" transform="translate(-220.59 -173.83)" style="fill:#fff"/>
                <path data-name="Path 770" d="M412.121 341.42c1.883 1.876 3.087 5.894 2.7 8.981s-2.156 4.059-3.936 2.17-2.985-5.908-2.7-8.981 2.06-4.046 3.936-2.17z" transform="translate(-357.146 -158.937)" style="fill:#fff"/>
                <path data-name="Path 771" d="M364.758 378.367a80.922 80.922 0 0 1-17.113-7.667c-.856-.5-1.54-.109-1.54.876v1.253a3.423 3.423 0 0 0 1.54 2.7 80.922 80.922 0 0 0 17.113 7.667 1.28 1.28 0 0 0 1.725-1.3v-1.253a2.512 2.512 0 0 0-1.725-2.276z" transform="translate(-266.273 -168.406)" style="fill:#37474f"/>
                <path data-name="Path 772" d="M380.08 351.818v1.253a4.361 4.361 0 0 0 1.369 2.95 145 145 0 0 0 12.821 9.579c.822.541 1.5.171 1.5-.815v-1.235a3.717 3.717 0 0 0-1.5-2.738 146 146 0 0 1-12.822-9.583c-.779-.678-1.368-.397-1.368.589z" transform="translate(-318.814 -162.215)" style="fill:#37474f"/>
                <path data-name="Path 773" d="M364.756 391.149a80.9 80.9 0 0 1-17.113-7.66c-.856-.5-1.54-.116-1.54.876v1.253a3.464 3.464 0 0 0 1.54 2.7 81.252 81.252 0 0 0 17.113 7.66 1.273 1.273 0 0 0 1.725-1.3v-1.253a2.533 2.533 0 0 0-1.725-2.276z" transform="translate(-266.272 -172.44)" style="fill:#37474f"/>
                <path data-name="Path 774" d="M380.08 364.643v1.257a4.361 4.361 0 0 0 1.369 2.944 144.977 144.977 0 0 0 12.821 9.583c.821.548 1.5.178 1.5-.815v-1.253a3.717 3.717 0 0 0-1.5-2.738 148.747 148.747 0 0 1-12.822-9.583c-.779-.668-1.368-.388-1.368.605z" transform="translate(-318.814 -166.258)" style="fill:#37474f"/>
                <g data-name="Group 16374" style="opacity:.15">
                    <path data-name="Path 775" d="M95.911 174.749a231.7 231.7 0 0 0 28.518 13.006 1.369 1.369 0 0 1 .685 2.108l-.048.068a2.861 2.861 0 0 1-2.738 1.143 118.26 118.26 0 0 1-29.694-11.465 1.588 1.588 0 0 1-.561-2.334l1.28-1.9a2 2 0 0 1 2.553-.623z"/>
                </g>
                <g data-name="Group 16375" style="opacity:.15">
                    <path data-name="Path 776" d="M66.366 154.266A171.245 171.245 0 0 0 89.9 171.284a1.663 1.663 0 0 1 .527 2.4l-1.294 1.917a1.93 1.93 0 0 1-2.547.568c-12.8-7.715-19.646-14.505-22.781-18.2a2.526 2.526 0 0 1-.13-2.875l.349-.52a1.526 1.526 0 0 1 2.341-.3z"/>
                </g>
                <path data-name="Path 777" d="M282.34 266.442a160.1 160.1 0 0 0 30.27 22.46 227.353 227.353 0 0 0 38.916 17.476l10.816-52.415-43.235-24.951-19.886-11.473-6.065-3.519z" transform="translate(-218.479 -119.048)" style="fill:#455a64"/>
                <path data-name="Path 778" d="m293.135 214 6.065 3.512 19.886 11.493 43.235 24.951-10.816 52.415-.739-.246-.151-.048-.753-.26-.315-.089h-.137l-.513-.185-.8-.281-.794-.288-.52-.192-.685-.253-2.314-.876-.52-.2a262.285 262.285 0 0 1-6.236-2.505l-2.246-.948-.363-.158-.411-.171c-.472-.219-.965-.424-1.458-.644l-.424-.185-.986-.445-1.129-.507c-.821-.37-1.657-.76-2.5-1.157s-1.691-.8-2.546-1.212c-.644-.315-1.287-.63-1.93-.958l-1.561-.78-.164-.082-1.6-.828-.13-.068-1.4-.739-1.123-.6q-1.369-.732-2.663-1.479l-1.773-1.013-1.615-1.04c-.459-.267-.91-.548-1.369-.821a9.916 9.916 0 0 1-.513-.315 81.25 81.25 0 0 1-1.533-.945l-.185-.116-.732-.465c-.322-.205-.63-.411-.952-.609l-.91-.6-.9-.589a46.05 46.05 0 0 1-1.116-.746c-.746-.507-1.472-1-2.184-1.5l-.144-.1-.821-.568a220.972 220.972 0 0 1-3.108-2.245l-.739-.554-.685-.534-.684-.534c-.465-.349-.91-.685-1.369-1.034l-.055-.041-.554-.431-1.266-1.013-.8-.637c-.164-.137-.322-.274-.479-.4s-.315-.267-.466-.383l-.459-.376a.156.156 0 0 0 0-.034l-1.04-.835c-1.28-1.082-2.355-2.054-3.2-2.807a3.466 3.466 0 0 0-.342-.308l-.068-.068-.356-.329c-1.006-.924-1.554-1.472-1.629-1.547zm23.309 73.245a.089.089 0 0 0 0 .041 2.553 2.553 0 0 0 .062.315v.089c.034.082.062.171.1.253a.759.759 0 0 0 .048.11 1.643 1.643 0 0 0 .137.294 2.828 2.828 0 0 0 .726.856 1.638 1.638 0 0 0 .315.2c2.546 1.369 5.093 2.7 7.578 3.909l1.308.644q1.568.746 3.1 1.451l1.424.685 2.437 1.082c.4.185.8.356 1.191.52l1.157.5c1.533.685 3 1.26 4.381 1.821.732.3 1.451.582 2.136.856l1.006.39c1.65.637 3.1 1.184 4.326 1.629a1.78 1.78 0 0 0 2.2-.746 2.278 2.278 0 0 0 .226-.616l6.654-33.145a3.156 3.156 0 0 0-1.41-3.149l-28.066-16.2a1.513 1.513 0 0 0-2.348 1.02l-6.648 27.746-2.013 8.406-.034.137v.1a.321.321 0 0 0 0 .116.6.6 0 0 0 0 .116 1.448 1.448 0 0 0 0 .246 2 2 0 0 0 .007.324zm-24.725-15.388.493.418c1.636 1.321 3.5 2.738 5.545 4.292.685.52 1.417 1.04 2.163 1.574l.8.582c1.088.78 2.218 1.561 3.423 2.362l1.164.78c.39.267.794.527 1.2.787s.815.541 1.225.8c1.472.952 3 1.9 4.573 2.841a1.479 1.479 0 0 0 2.321-1l.048-.205 2.019-8.379 6.585-27.683a3.053 3.053 0 0 0-1.369-3.156l-5.319-3.06-21.652-12.527-.965-.548-.082-.041a1.438 1.438 0 0 0-2.184 1.068l-6.619 32.858a4.155 4.155 0 0 0 .637 2.9c.075.116.157.233.24.335a3.221 3.221 0 0 0 .26.267l.349.315c.157.151.322.294.486.438l1.479 1.287c.527.459 1.109.952 1.725 1.465l1.294 1.068.157.123z" transform="translate(-218.459 -119.041)" style="fill:#ff7e00"/>
                <g data-name="Group 16376" style="opacity:.3">
                    <path data-name="Path 779" d="m74.676 94.958 6.065 3.512 19.886 11.493 43.235 24.951-10.816 52.415-.739-.246-.151-.048-.753-.26-.315-.089h-.137l-.513-.185-.8-.281-.794-.288-.52-.192-.685-.253-2.314-.876-.52-.2a262.285 262.285 0 0 1-6.236-2.505l-2.246-.948-.363-.158-.411-.171c-.472-.219-.965-.424-1.458-.644l-.424-.185-.986-.445-1.129-.507c-.821-.37-1.657-.76-2.5-1.157s-1.691-.8-2.546-1.212c-.644-.315-1.287-.63-1.93-.958l-1.561-.78-.164-.082-1.6-.828-.13-.068-1.4-.739-1.123-.6q-1.369-.732-2.663-1.479l-1.773-1.013-1.615-1.04c-.459-.267-.91-.548-1.369-.821a9.916 9.916 0 0 1-.513-.315 81.25 81.25 0 0 1-1.533-.945l-.185-.116-.732-.465c-.322-.205-.63-.411-.952-.609l-.91-.6-.9-.589a46.05 46.05 0 0 1-1.116-.746c-.746-.507-1.472-1-2.184-1.5l-.144-.1-.821-.568a220.972 220.972 0 0 1-3.108-2.245l-.739-.554-.685-.534-.684-.534c-.465-.349-.91-.685-1.369-1.034l-.055-.041-.554-.431-1.266-1.013-.8-.637c-.164-.137-.322-.274-.479-.4s-.315-.267-.466-.383l-.459-.376a.156.156 0 0 0 0-.034l-1.04-.835c-1.28-1.082-2.355-2.054-3.2-2.807a3.466 3.466 0 0 0-.342-.308l-.068-.068-.356-.329c-1.006-.924-1.554-1.472-1.629-1.547zm23.309 73.245a.089.089 0 0 0 0 .041 2.553 2.553 0 0 0 .062.315v.089c.034.082.062.171.1.253a.759.759 0 0 0 .048.11 1.643 1.643 0 0 0 .137.294 2.828 2.828 0 0 0 .726.856 1.638 1.638 0 0 0 .315.2c2.546 1.369 5.093 2.7 7.578 3.909l1.308.644q1.568.746 3.1 1.451l1.424.685 2.437 1.082c.4.185.8.356 1.191.52l1.157.5c1.533.685 3 1.26 4.381 1.821.732.3 1.451.582 2.136.856l1.006.39c1.65.637 3.1 1.184 4.326 1.629a1.78 1.78 0 0 0 2.2-.746 2.278 2.278 0 0 0 .226-.616l6.654-33.145a3.156 3.156 0 0 0-1.41-3.149l-28.066-16.2a1.513 1.513 0 0 0-2.348 1.02l-6.648 27.746-2.013 8.406-.034.137v.1a.321.321 0 0 0 0 .116.6.6 0 0 0 0 .116 1.448 1.448 0 0 0 0 .246 2 2 0 0 0 .007.324zM73.26 152.815l.493.418c1.636 1.321 3.5 2.738 5.545 4.292.685.52 1.417 1.04 2.163 1.574l.8.582c1.088.78 2.218 1.561 3.423 2.362l1.164.78c.39.267.794.527 1.2.787s.815.541 1.225.8c1.472.952 3 1.9 4.573 2.841a1.479 1.479 0 0 0 2.321-1l.048-.205 2.019-8.379 6.585-27.683a3.053 3.053 0 0 0-1.369-3.156l-5.319-3.06-21.652-12.527-.965-.548-.082-.041a1.438 1.438 0 0 0-2.184 1.068l-6.619 32.858a4.155 4.155 0 0 0 .637 2.9c.075.116.157.233.24.335a3.221 3.221 0 0 0 .26.267l.349.315c.157.151.322.294.486.438l1.479 1.287c.527.459 1.109.952 1.725 1.465l1.294 1.068.157.123z"/>
                </g>
                <path data-name="Path 780" d="M350.006 263.957 287.583 227.9a2.464 2.464 0 0 1-1.109-2.451l1.136-5.634a1.116 1.116 0 0 1 1.759-.794l62.416 36.054a2.457 2.457 0 0 1 1.109 2.458l-1.129 5.627a1.116 1.116 0 0 1-1.759.794z" transform="translate(-211.874 -120.561)" style="fill:#455a64"/>
                <path data-name="Path 781" d="M299.268 315.7a2.916 2.916 0 0 0 1.369 3.087 230.141 230.141 0 0 0 30.051 13.458 1.787 1.787 0 0 0 2.43-1.369l.438-2.184c-6.065-4.408-20.8-14.93-32.1-21.46a1.457 1.457 0 0 0-.137-.082z" transform="translate(-201.243 -148.427)" style="fill:#37474f"/>
                <path data-name="Path 782" d="M349.03 289.687a2.893 2.893 0 0 0 .52.623 173.5 173.5 0 0 0 26.081 19.167 1.479 1.479 0 0 0 2.321-1l2.054-8.6a196.909 196.909 0 0 0-27.429-12.493z" transform="translate(-281.795 -142.19)" style="fill:#37474f"/>
                <path data-name="Path 783" d="m374.055 266.656 7.564-4.354a6.846 6.846 0 0 0 3.1-5.374v-16.051l-5.8-3.354-.958-.555a.382.382 0 0 0-.089-.048l-5.472 28.538c-.282 1.349.471 1.883 1.655 1.198z" transform="translate(-302.466 -126.272)" style="opacity:.1;fill:#fff"/>
                <path data-name="Path 784" d="M347.52 247.35v11.117c0 1.191.828 1.67 1.862 1.075L359 253.99l-1.143-.685z" transform="translate(-259.756 -129.562)" style="opacity:.1;fill:#fff"/>
                <path data-name="Path 785" d="m207.83 198.716 69.186 39.943 23.784-17.476 27.224-15.717-69.189-39.936-27.224 15.717z" transform="translate(-133.154 -103.751)" style="fill:#ff7e00"/>
                <g data-name="freepik--percentage-box--inject-18">
                    <path data-name="Path 786" d="m277.6 319.566-5.155-2.991a1.178 1.178 0 0 0-1.2-.116l-1.219.726a1.177 1.177 0 0 0-.5 1.1v12.363a3.731 3.731 0 0 0 1.691 2.93l5.155 2.991a1.184 1.184 0 0 0 1.2.123c.3-.178.917-.555 1.218-.726a1.191 1.191 0 0 0 .5-1.1V322.5a3.738 3.738 0 0 0-1.69-2.934z" transform="translate(-126.657 -151.328)" style="fill:#fafafa"/>
                    <path data-name="Path 787" d="M271.2 324.576v12.37a1.184 1.184 0 0 1-.5 1.1c-.294.164-.76.459-1.184.684a1.225 1.225 0 0 0 .459-1.075V325.3a3.458 3.458 0 0 0-.486-1.636l1.232-.726a3.477 3.477 0 0 1 .479 1.638z" transform="translate(-118.55 -153.408)" style="fill:#e0e0e0"/>
                    <path data-name="Path 788" d="m272.981 333.906 5.155 2.991c.931.541 1.691.1 1.691-.972v-12.362a3.758 3.758 0 0 0-1.691-2.937l-5.155-2.991c-.931-.534-1.691-.1-1.691.979v12.363a3.731 3.731 0 0 0 1.691 2.929z" transform="translate(-128.399 -151.663)" style="fill:#f0f0f0"/>
                </g>
                <path data-name="Path 789" d="M287.2 344.4a3.84 3.84 0 0 0-1.732 3.012c0 1.109.774 1.561 1.732 1.006a3.826 3.826 0 0 0 1.732-3.012c.002-1.106-.772-1.56-1.732-1.006z" transform="translate(-147.214 -160.104)" style="fill:#37474f"/>
                <path data-name="Path 790" d="M283.742 346.4a1.309 1.309 0 0 0 .643-.178 1.26 1.26 0 0 0 .637-1.109v-12.537a.431.431 0 1 0-.856 0v12.554a.4.4 0 0 1-.212.37.411.411 0 0 1-.424 0l-5.668-3.272a.425.425 0 0 0-.582.157.438.438 0 0 0 .157.589l5.689 3.265a1.308 1.308 0 0 0 .616.161z" transform="translate(-137.662 -156.295)" style="fill:#263238"/>
            </g>
        </g>
        <g data-name="freepik--character--inject-18">
            <path data-name="Path 811" d="M103.952 371.21a3.82 3.82 0 0 1 .329 1.985 9.124 9.124 0 0 0-.329 2.7c.11 1.369.4 1.787.507 2.738a3.922 3.922 0 0 1-.582 2.738c-.589.883-1.9 1.588-4.319 1.41-1.958-.144-2.786-1.239-2.786-2.4z" transform="translate(166.386 -168.636)" style="fill:#263238"/>
            <path data-name="Path 812" d="M104.6 364.11c-1.232.685-3.245-.116-4.744-.917l-1.574-9.31 6.811-1.513z" transform="translate(164.767 -162.692)" style="fill:#ffa8a7"/>
            <path data-name="Path 813" d="M103.5 367.021a4.527 4.527 0 0 1 .089.767c.055.452.178.89.267 1.369a2.174 2.174 0 0 0 .068.356 14.271 14.271 0 0 1-.089 2.738 15.116 15.116 0 0 0 .445 3.217c.37 1.924.363 3.121-1.369 4.374a4.491 4.491 0 0 1-2.957.719 3.91 3.91 0 0 1-2.43-.685 2.053 2.053 0 0 1-.685-1.164c0-2.054.828-4.347 1.047-6.359a10.153 10.153 0 0 0 .1-1.636c-.048-.685-.253-1.369-.3-2.054a1.137 1.137 0 0 1 .116-.739 1.218 1.218 0 0 1 .917-.37c.89-.082 1.78-.137 2.677-.171a.794.794 0 0 1 .6.151c.164.157.157.424.2.65s.2.493.424.459a.377.377 0 0 0 .281-.322c0-.151.137-1.321.137-1.472.04.015.355-.026.462.172z" transform="translate(166.377 -167.26)" style="fill:#37474f"/>
            <path data-name="Path 814" d="M96.817 382.525a2.451 2.451 0 0 1 .329-1.218c.993-1.78 5.976-1.657 7.468.212a2.738 2.738 0 0 1-1.26 2.54 5.457 5.457 0 0 1-3.341.685 4.326 4.326 0 0 1-2.437-.753 1.677 1.677 0 0 1-.76-1.465z" transform="translate(166.237 -171.422)" style="fill:#455a64"/>
            <path data-name="Path 815" d="M122.515 363.664c-1.041 2.252-2.677 1.369-4.792-.1l-1.033-13.474 6.53 1.766z" transform="translate(134.036 -161.973)" style="fill:#ffa8a7"/>
            <path data-name="Path 816" d="M115.722 376.149a1.5 1.5 0 0 0 .062 1.109 5.6 5.6 0 0 0 4.141 1.129 9.631 9.631 0 0 0 4.744-1.657 5.477 5.477 0 0 1 2.916-.753c1.136-.062 2.622-.63 2.875-1.164a2.526 2.526 0 0 0-.041-1.444z" transform="translate(127.426 -169.317)" style="fill:#263238"/>
            <path data-name="Path 817" d="M123.852 366.719a4.794 4.794 0 0 0-.219.513 4.025 4.025 0 0 1-1.2 1.622 12.934 12.934 0 0 1-2.478 1.472c-.548.274-1.136.37-1.7.589a10.031 10.031 0 0 0-1.828.89 1.656 1.656 0 0 0 0 2.738 8.07 8.07 0 0 0 5.647.39c1.328-.376 2.8-1.794 4.545-1.93 1.109-.089 3.2-.4 3.916-1.239a4.312 4.312 0 0 0-.376-2.581 8.554 8.554 0 0 1-.281-1.766c0-.315.157-1.225-.507-1.307v.685s-.116.233-.8.383c-.219.048-.383.342-.493.616s-.171.472-.39.479a.418.418 0 0 1-.356-.253 3.283 3.283 0 0 1-.144-.438 1.759 1.759 0 0 0-1.082-.986 5.33 5.33 0 0 0-1.225-.205c-.322-.034-.582-.157-.856.116a1.029 1.029 0 0 0-.173.212z" transform="translate(127.312 -167.027)" style="fill:#37474f"/>
            <path data-name="Path 818" d="M118.224 369.54c.048.253.1.5.164.746a4.328 4.328 0 0 1 .376 2.581 5.4 5.4 0 0 1-3.011 1.133 4.2 4.2 0 0 1 2.471-4.46z" transform="translate(139.101 -168.109)" style="fill:#455a64"/>
            <path data-name="Path 819" d="M117.106 290.348c.287 8.728.164 12.226.13 28.278a27.725 27.725 0 0 1 1.177 7.585c.11 4.018-.315 12.322-.315 12.322s-3.327 2.054-6.161.424c0 0-2.259-12.219-3.128-17.8-.76-4.922-1.54-12.123-1.54-12.123l-1.088 10.234a40.615 40.615 0 0 1 .185 7.776c-.185 2.629-.9 11.9-.9 11.9a6.265 6.265 0 0 1-6.161.418s-1.479-18.441-1.527-20.83c-.048-2.738 1.013-30.4 1.013-30.4z" transform="translate(151.773 -142.427)" style="fill:#455a64"/>
            <path data-name="Path 820" d="m121.265 313.182-1.65-9.529s-3.58-.315-5.565-2.314c0 0 .356 1.965 4.86 3.135l1.65 9.583-.383 9.33z" transform="translate(137.798 -146.594)" style="fill:#263238"/>
            <path data-name="Path 821" d="M129.559 374.034a9.23 9.23 0 0 1 1.615-.685 3.916 3.916 0 0 1 3.621 4.025 7.53 7.53 0 0 1-5.209-.445 1.794 1.794 0 0 1-.027-2.9z" transform="translate(114.144 -169.311)" style="fill:#455a64"/>
            <g>
                <path data-name="Path 822" d="M147.069 257.355c-1.54-.041-4.415-.075-6.414 2.512-1.41 1.821-5.264 6.209-7.434 9.091-1.54-1.526-5.264-5.223-5.887-6.318a17.592 17.592 0 0 1-1.438-3.231 10.8 10.8 0 0 1-.527-2.019 10.952 10.952 0 0 1-.123-2.567c0-.767-1.136-.349-1.547.883a6.8 6.8 0 0 0-.281 2.1l-1.869-.856c-.685-.294-2.827-.993-3.005.212a2.917 2.917 0 0 1-.055.815 2.061 2.061 0 0 1-.226.315 1.369 1.369 0 0 0-.137 1.369 1.061 1.061 0 0 1 .13.63 1.808 1.808 0 0 0 0 .685 2.949 2.949 0 0 0 .281.493 2.054 2.054 0 0 1 .205.685 2.471 2.471 0 0 0 .178.685c.246.527.89.637 1.369.8a23.649 23.649 0 0 1 2.245.821c1.2.76 4.538 6.469 7.865 10.1 1.143 1.246 2.156 2.019 3.21 1.855a5.647 5.647 0 0 0 2.882-1.739c3.169-2.861 8.29-8.214 8.29-8.214 2.138-2.59 2.576-7.348 2.288-9.107z" transform="translate(109.208 -131.797)" style="fill:#ffa8a7"/>
                <path data-name="Path 823" d="M127.9 258.668a7.619 7.619 0 0 0-4.34.685c-1.369.684-1.643 1.116-2.937 2.635s-3.094 3.806-3.094 3.806 1.02 4.326 5.23 5.4l5.545-6.441z" transform="translate(128.376 -133.11)" style="fill:#455a64"/>
                <path data-name="Path 824" d="M154.458 259.59c.685.212.842.685.815 1.616a2.671 2.671 0 0 0 .76 2.054 1.478 1.478 0 0 1-.8-.356c-.294-.3-.37-.335-.534-.164a1.136 1.136 0 0 1-.431.24.739.739 0 0 1 .062.883c-.3.486-1.629.486-2.738-.089 0 0 1.766.568 2.184 0s-.52-1.273-1.218-1.472c0 0 1.711.424 1.978-.13s-.438-.993-1.444-1.26c0 0 1.41.267 1.657-.205a.869.869 0 0 0-.291-1.117z" transform="translate(77.333 -133.423)" style="fill:#f28f8f"/>
                <path data-name="Path 825" d="M99.989 265.213c.383-2.8.753-6.565 5.093-6.736l5.641-.267c1.369.356 7.53 2.143 7.53 2.143v8.9s-.205 3.717-.459 8.406c0 0 .507 5.476.459 7.605-4.011 2.54-14.656 1.814-18.886-.739-.199-3.869.218-16.54.622-19.312z" transform="translate(150.894 -132.988)" style="fill:#ff7e00"/>
                <path data-name="Path 826" d="m96 245.009 8.824-.459c1.677 1.328 4.792 4.107 4.792 4.867v.527a.109.109 0 0 1 0 .062c-.322.589-1.458.931-3.21.924-2.054 0-5.305-.267-6.161-1.013-1.253-1.13-4.251-4.408-4.251-4.408h.445z" transform="translate(161.803 -128.678)" style="fill:#ff7e00"/>
                <path data-name="Path 827" d="m96 245.009 8.824-.459c1.677 1.328 4.792 4.107 4.792 4.867v.527a.109.109 0 0 1 0 .062c-.322.589-1.458.931-3.21.924-2.054 0-5.305-.267-6.161-1.013-1.253-1.13-4.251-4.408-4.251-4.408h.445z" transform="translate(161.803 -128.678)" style="opacity:.2"/>
                <path data-name="Path 828" d="M104.882 245.27c1.759 1.369 5.086 4.374 4.758 4.963s-1.458.931-3.21.924c-2.054 0-5.305-.267-6.161-1.013-1.253-1.129-4.251-4.408-4.251-4.408z" transform="translate(161.746 -128.906)" style="fill:#ff7e00"/>
                <path data-name="Path 829" d="M104.882 245.27c1.759 1.369 5.086 4.374 4.758 4.963s-1.458.931-3.21.924c-2.054 0-5.305-.267-6.161-1.013-1.253-1.129-4.251-4.408-4.251-4.408z" transform="translate(161.746 -128.906)" style="opacity:.4"/>
                <path data-name="Path 830" d="M103.89 244.913c0 .26-.89.774-.89.774l.287-1.547z" transform="translate(162.737 -128.549)" style="fill:#ff7e00"/>
                <path data-name="Path 831" d="M103.89 244.913c0 .26-.89.774-.89.774l.287-1.547z" transform="translate(162.737 -128.549)" style="opacity:.3"/>
                <path data-name="Path 832" d="M104.165 235.432a5.779 5.779 0 0 1 1.78-1.992 7.5 7.5 0 0 1 4.586-.986 11.311 11.311 0 0 1 2.991.459 6.031 6.031 0 0 1 3.963 3.868 8.139 8.139 0 0 1-.828 6.845 28.377 28.377 0 0 0-1.369 2.738c-.39.76-.685 1.369-.685 1.369l.13-2.4-2.286-.2a8.9 8.9 0 0 0-1.992-.11 2.635 2.635 0 0 1-1.739-.548 27.257 27.257 0 0 1-3.087-2.286 8.653 8.653 0 0 1-1.663-1.766 3.486 3.486 0 0 1-.288-.486 2.89 2.89 0 0 1-.3-.917 5.306 5.306 0 0 1-.062-1.369 6.385 6.385 0 0 1 .4-1.369 8.72 8.72 0 0 1 .445-.849z" transform="translate(148.531 -124.859)" style="fill:#263238"/>
                <path data-name="Path 833" d="M108.6 239.205a12.023 12.023 0 0 0 1.54-.308h.144a3.457 3.457 0 0 0 2.54 2.3 8.8 8.8 0 0 0-.068 2.9 1.8 1.8 0 0 0 .219.589.725.725 0 0 0 .513.322.482.482 0 0 0 .486-.37 6.159 6.159 0 0 1 .424-.815 1.436 1.436 0 0 1 .246-.315 1.369 1.369 0 0 1 2.279.465 2.9 2.9 0 0 1-1.527 3.525c-1.759.486-2.136-.685-2.136-.685l-.342 6.263c-.951.993-4.566 2.362-5.606 3.539-.465-.8-1.8-2.772-.041-3.888l.068-1.91a11.037 11.037 0 0 1-2.348.041c-1.273-.24-1.9-1.314-2.245-2.738a32.325 32.325 0 0 1-.308-8.214 13.254 13.254 0 0 1 .267-1.8c-.055.171 1.2.685 1.369.685a7.685 7.685 0 0 0 1.752.37 16.218 16.218 0 0 0 2.054.075 6.338 6.338 0 0 0 .719-.034z" transform="translate(150.036 -126.647)" style="fill:#ffa8a7"/>
                <path data-name="Path 834" d="M108.781 255.54a22.3 22.3 0 0 0 3.888-.979 3.327 3.327 0 0 0 1.424-1.321 4.559 4.559 0 0 1-.835 1.581c-.76.91-4.5 1.321-4.5 1.321z" transform="translate(148.592 -131.42)" style="fill:#f28f8f"/>
                <path data-name="Path 835" d="M113.17 245.5a.534.534 0 1 0 .161-.382.534.534 0 0 0-.161.382z" transform="translate(145.428 -128.811)" style="fill:#263238"/>
                <path data-name="Path 836" d="m111.639 241.679 1.369.4a.726.726 0 0 0-.479-.89.685.685 0 0 0-.89.486z" transform="translate(147.677 -127.607)" style="fill:#263238"/>
                <path data-name="Path 837" d="m116.888 251.19-1.971.685a1.027 1.027 0 0 0 1.3.685 1.082 1.082 0 0 0 .671-1.37z" transform="translate(141.525 -130.773)" style="fill:#b16668"/>
                <path data-name="Path 838" d="M115.842 251.79a.788.788 0 0 1 .253.041 1.068 1.068 0 0 1-.685.9.965.965 0 0 1-.438.048.308.308 0 0 1 0-.075.9.9 0 0 1 .87-.914z" transform="translate(142.338 -130.963)" style="fill:#f28f8f"/>
                <path data-name="Path 839" d="m121.17 241.928 1.28-.486a.685.685 0 0 0-1.28.486z" transform="translate(131.766 -127.563)" style="fill:#263238"/>
                <path data-name="Path 840" d="m104.31 243.09 4.484 1.54a1.609 1.609 0 0 0-1.287.65l-3.176-1.2z" transform="translate(156.937 -128.218)" style="fill:#37474f"/>
                <path data-name="Path 841" d="M120.32 245.371a.534.534 0 1 0 .554-.541.548.548 0 0 0-.555.541z" transform="translate(133.383 -128.767)" style="fill:#263238"/>
                <path data-name="Path 842" d="m110.065 242.726.287-.034a8.742 8.742 0 0 1 2.937.151c.938.308 1.273.637 1.793.65s.9-.308 1.889-.582a9.694 9.694 0 0 1 3.128 0 .8.8 0 0 1 .315.041.52.52 0 0 1 .363.534 1.109 1.109 0 0 1-.294.609.875.875 0 0 0-.1.246 10.325 10.325 0 0 1-.349 1.691 2.15 2.15 0 0 1-.39.609 1.7 1.7 0 0 1-.205.171l-.116.082a1.842 1.842 0 0 1-.349.164h-.246a2.082 2.082 0 0 1-.308.041h-.3a2.218 2.218 0 0 1-2.163-1.307c-.335-.65-.267-1.554-.862-1.568h-.11c-.431.1-.363.931-.63 1.527a2.422 2.422 0 0 1-.411.65.634.634 0 0 1-.1.1l-.055.048a.185.185 0 0 1-.055.048l-.048.034-.055.041h-.075a2.008 2.008 0 0 1-.507.2h-.048a2.51 2.51 0 0 1-.623.055 1.889 1.889 0 0 1-1.841-1.212 10.951 10.951 0 0 1-.4-1.711.541.541 0 0 0-.116-.226 1.2 1.2 0 0 1-.281-.63.433.433 0 0 1 .325-.422zm6.216 2.519a2.013 2.013 0 0 0 .459.9 1.849 1.849 0 0 0 1.41.541 1.506 1.506 0 0 0 1.369-.63l.041-.068.068-.123a.17.17 0 0 0 0-.048v-.048a.117.117 0 0 0 0-.034.287.287 0 0 0 0-.068.675.675 0 0 1 .068-.185v-.11a1.15 1.15 0 0 0 .041-.185v-.069c.1-.445.192-1.328 0-1.533a2.574 2.574 0 0 0-1.773-.342h-.1a2.356 2.356 0 0 0-.431.068l-.171.041a3.438 3.438 0 0 0-.424.13l-.13.055-.137.068h-.055a.917.917 0 0 0-.281.233 2.054 2.054 0 0 0 .045 1.407zm-5.593-.294a2.054 2.054 0 0 0 .931 1.458 1.821 1.821 0 0 0 .685.171 1.492 1.492 0 0 0 1.417-.685v-.089a.368.368 0 0 1 .034-.075v-.157a1.774 1.774 0 0 0 .082-.329 2.17 2.17 0 0 0-.055-1.369 2.738 2.738 0 0 0-1.574-.684l-.445-.041h-.507l-.219.034h-.2l-.11.041a.719.719 0 0 0-.233.151 6.949 6.949 0 0 0 .192 1.561z" transform="translate(141.229 -128.073)" style="fill:#263238"/>
                <path data-name="Path 843" d="m119.966 245.055-.1 3.731-2.054-.6 1.915-3.186a.535.535 0 0 1 .24.055z" transform="translate(136.523 -128.821)" style="fill:#f28f8f"/>
                <path data-name="Path 844" d="M117.561 238.773a7.53 7.53 0 0 1-.424 2.184 2.738 2.738 0 0 0-.52-.63 13.129 13.129 0 0 0-3.929-2.355 15.429 15.429 0 0 0-10.33-.609 7.124 7.124 0 0 1 .452-1.862c1.2-2.93 3.525-4.429 7.181-3.977 4.284.54 7.775 2.998 7.57 7.249z" transform="translate(149.497 -124.544)" style="fill:#ff7e00"/>
                <path data-name="Path 845" d="M119.12 236.571a11.253 11.253 0 0 0-4.278-.39 4.49 4.49 0 0 1-.876-1.034c-.335-.554-.205-1.253.13-1.369s.342.294 1.595.945a2.108 2.108 0 0 1-.082-1.28c.219-.507.637.424 1.561 1.041s1.854.944 1.95 2.087z" transform="translate(140.134 -125.129)" style="fill:#263238"/>
                <path data-name="Path 846" d="M104.925 262.357c.685-.431 2.2-1.177 2.985-.349s1.191 1.068 1.7.917a10.379 10.379 0 0 0 2.738-2.738c.685-1.047.52-1.472.52-1.472l-1.28-1.684c-.356-.472-.472-.527-.924-.561l-.062 1.246a2.362 2.362 0 0 1-.965 1.533c-1.269.87-3.774 1.102-4.712 3.108z" transform="translate(152.42 -132.439)" style="fill:#455a64"/>
                <path data-name="Path 847" d="M119.627 262.748c-.418-.39-1.369-1.369-2.054-1.157s-1 .609-1.013.24a7.42 7.42 0 0 1 1.13-2.485 4.291 4.291 0 0 1 1.91-1.636l-.041 1.15s-.821 1.04-.726 1.663.712 1.616.794 2.225z" transform="translate(137.718 -132.83)" style="fill:#455a64"/>
                <g data-name="freepik--arm--inject-18">
                    <path data-name="Path 848" d="m112.35 280.67 14.861 2.547 5.873 17.64-14.156-2.793z" transform="translate(127.142 -140.073)" style="fill:#263238"/>
                    <path data-name="Path 849" d="M114.79 299.79a3.423 3.423 0 0 0 2.457 2.41 7.462 7.462 0 0 0 3.957-.329l-.493-1.472z" transform="translate(137.352 -146.105)" style="opacity:.15"/>
                    <path data-name="Path 850" d="m127.028 283.543-.171-.541c-.089-.3.76-.39 1.9-.2l2.191.37c1.143.192 2.143.589 2.238.89l.164.541z" transform="translate(116.948 -140.714)" style="opacity:.15"/>
                    <path data-name="Path 851" d="M126.5 280.548c-.055-.185.281-.267.76-.178l.869.157s-.356-1.177 1.561-.924a2.95 2.95 0 0 1 2.444 1.581l.931.178a1.677 1.677 0 0 1 1.061.507l.137.335-7.653-1.307s-.053-.157-.11-.349z" transform="translate(116.289 -139.725)" style="fill:#ff7e00"/>
                    <path data-name="Path 852" d="M126.5 280.548c-.055-.185.281-.267.76-.178l.869.157s-.356-1.177 1.561-.924a2.95 2.95 0 0 1 2.444 1.581l.931.178a1.677 1.677 0 0 1 1.061.507l.137.335-7.653-1.307s-.053-.157-.11-.349z" transform="translate(116.289 -139.725)" style="opacity:.3"/>
                    <path data-name="Path 853" d="M133.407 283.719c-.075-.246-.787-.561-1.677-.773v-.082c-.075-.267 0-.431.568-.342v-.212l-5.3-.869.233.212c.685.109.993.171 1.136.637l.034.1c-.828-.075-1.369 0-1.314.274l.171.541 6.3 1.061z" transform="translate(116.64 -140.316)" style="fill:#ff7e00"/>
                    <path data-name="Path 854" d="M133.407 283.719c-.075-.246-.787-.561-1.677-.773v-.082c-.075-.267 0-.431.568-.342v-.212l-5.3-.869.233.212c.685.109.993.171 1.136.637l.034.1c-.828-.075-1.369 0-1.314.274l.171.541 6.3 1.061z" transform="translate(116.64 -140.316)" style="opacity:.4"/>
                    <path data-name="Path 855" d="M94.879 284.964c-1.793.65-3.813.486-5.7.548-.178 0-.4 0-.472.2a.4.4 0 0 0 .164.424 1.861 1.861 0 0 1 .37.322c.144.212.089.493.13.746a1.923 1.923 0 0 0 .589.945 4.444 4.444 0 0 0 .945.849 6.626 6.626 0 0 0 4.237.5 14.171 14.171 0 0 0 2.581-.828c.794-.315 5.606-1.862 6.161-2.054 4.244-1.595 10.09-3.566 10.391-5.6s-1.458-8.728-2.348-13.869c-.849-4.881-2.663-5.476-5.415-5.976a9.18 9.18 0 0 0-.623 9.467l1.787 7.934a92.562 92.562 0 0 1-8.632 4.935 3.421 3.421 0 0 1-1.7-.144 7.373 7.373 0 0 0-3.115-.24" transform="translate(162.103 -133.921)" style="fill:#ffa8a7"/>
                    <path data-name="Path 856" d="M92.111 261.08c2.9.329 4.272 1.04 4.956 3.368s1.8 7.859 1.8 7.859c-1.889 1.746-4.456 2.054-6.606 2.095l-.961-3.882c-.716-1.554-2.017-6.038.811-9.44z" transform="translate(176.406 -133.893)" style="fill:#455a64"/>
                </g>
            </g>
        </g>
    </g>
</svg>
