<svg xmlns="http://www.w3.org/2000/svg" width="19.784" height="18.135" viewBox="0 0 19.784 18.135">
    <path d="M15.662 4.341H13.95a4.117 4.117 0 0 0-3.029-3.271.824.824 0 1 0-.411 1.6 2.472 2.472 0 0 1 1.854 2.4v9.171H3.3a1.65 1.65 0 0 1-1.649-1.649v-3.3h2.058a.824.824 0 1 0 0-1.649h-2.06A1.65 1.65 0 0 0 0 9.287v3.3a3.3 3.3 0 0 0 2.518 3.2 2.885 2.885 0 1 0 5.694.093h3.358a2.854 2.854 0 0 0-.031.412 2.885 2.885 0 1 0 5.725-.505 3.3 3.3 0 0 0 2.518-3.2V8.462A4.126 4.126 0 0 0 15.66 4.34zm2.473 4.122v.824h-4.122v-3.3h1.649a2.476 2.476 0 0 1 2.473 2.475zm-11.54 7.83a1.236 1.236 0 0 1-2.473 0 1.166 1.166 0 0 1 .075-.412H6.52a1.166 1.166 0 0 1 .075.412zm7.831 1.236a1.238 1.238 0 0 1-1.236-1.236 1.166 1.166 0 0 1 .075-.412h2.324a1.166 1.166 0 0 1 .075.412 1.238 1.238 0 0 1-1.236 1.236zm2.061-3.3h-2.474v-3.3h4.122v1.649a1.65 1.65 0 0 1-1.649 1.655zM0 1.868a.824.824 0 0 1 .824-.824h6.722a.824.824 0 0 1 0 1.649H.824A.824.824 0 0 1 0 1.868zm0 3.3a.824.824 0 0 1 .824-.824H5.9a.824.824 0 0 1 0 1.649H.824A.824.824 0 0 1 0 5.165z" transform="translate(0 -1.043)" style="fill:#f96900"/>
</svg>
